<svg xmlns="http://www.w3.org/2000/svg" xmlns:xlink="http://www.w3.org/1999/xlink" viewBox="0 0 120 120"><defs><style>.cls-1{fill:url(#linear-gradient);}.cls-2,.cls-3,.cls-5{fill:#ff9750;}.cls-2{stroke:#fff;}.cls-2,.cls-3,.cls-4{stroke-miterlimit:10;stroke-width:2px;}.cls-3{stroke:#b70f5b;}.cls-4{fill:#b70f5b;stroke:#ff9750;}.cls-6{fill:#fff;}</style><linearGradient id="linear-gradient" y1="60" x2="120" y2="60" gradientUnits="userSpaceOnUse"><stop offset="0" stop-color="#d23274"/><stop offset="1" stop-color="#f24a37"/></linearGradient></defs><title>5_10+Accelerator@web</title><g id="Layer_2" data-name="Layer 2"><g id="Layer_1-2" data-name="Layer 1"><rect class="cls-1" width="120" height="120" rx="5"/><line class="cls-2" x1="22.98" y1="85.6" x2="22.98" y2="66.19"/><line class="cls-2" x1="97.02" y1="85.6" x2="97.02" y2="66.19"/><line class="cls-3" x1="60" y1="85.6" x2="60" y2="42.66"/><polyline class="cls-2" points="0 93 60 93 120 93"/><circle class="cls-4" cx="22.98" cy="93" r="7.4"/><circle class="cls-4" cx="60" cy="93" r="7.4"/><circle class="cls-4" cx="97.02" cy="93" r="7.4"/><path class="cls-5" d="M114.11,63.74v1.84a7.3,7.3,0,0,1-1.47,3.47,6.71,6.71,0,0,1-5.38,2.7c-7.94,0-15.89,0-23.83,0a7.07,7.07,0,0,1-1.25-14,5.74,5.74,0,0,1,1.49-.12.39.39,0,0,0,.44-.29A7,7,0,0,1,89.75,53a5.2,5.2,0,0,1,1.67,0,.57.57,0,0,0,.66-.3,9.09,9.09,0,0,1,7.08-4.41,9.36,9.36,0,0,1,9.67,6,8.79,8.79,0,0,1,.61,3.4c0,.2,0,.35.23.44a7,7,0,0,1,4.41,5.53Z"/><path class="cls-6" d="M83.55,32.83v2.25a8.81,8.81,0,0,1-1.8,4.25,8.2,8.2,0,0,1-6.58,3.3c-9.72,0-19.45,0-29.17,0a8.66,8.66,0,0,1-1.53-17.14,7,7,0,0,1,1.82-.15.48.48,0,0,0,.54-.35,8.53,8.53,0,0,1,6.9-5.35,6.41,6.41,0,0,1,2.05,0,.71.71,0,0,0,.81-.37,11.15,11.15,0,0,1,8.66-5.4,11.45,11.45,0,0,1,11.84,7.39,11,11,0,0,1,.75,4.16c0,.24,0,.43.28.54a8.61,8.61,0,0,1,5.4,6.77Z"/><path class="cls-5" d="M41.77,58.16V60a7.3,7.3,0,0,1-1.47,3.47,6.71,6.71,0,0,1-5.38,2.7c-7.94,0-15.89,0-23.83,0a7.07,7.07,0,0,1-1.25-14,5.74,5.74,0,0,1,1.49-.12.39.39,0,0,0,.44-.29,7,7,0,0,1,5.64-4.37,5.2,5.2,0,0,1,1.67,0,.57.57,0,0,0,.66-.3,9.09,9.09,0,0,1,7.08-4.41,9.36,9.36,0,0,1,9.67,6,8.79,8.79,0,0,1,.61,3.4c0,.2,0,.35.23.44a7,7,0,0,1,4.41,5.53Z"/></g></g></svg>