<svg xmlns="http://www.w3.org/2000/svg" xmlns:xlink="http://www.w3.org/1999/xlink" viewBox="0 0 111.39 111.39"><defs><style>.cls-1{fill:url(#linear-gradient);}.cls-2{fill:#fff;}.cls-3{fill:url(#linear-gradient-2);}.cls-4{fill:url(#linear-gradient-3);}.cls-5,.cls-6{fill:none;stroke-linecap:round;stroke-linejoin:round;stroke-width:15.39px;}.cls-5{stroke:#ffe9e9;}.cls-6{stroke:url(#linear-gradient-4);}</style><linearGradient id="linear-gradient" x1="28.33" y1="55.7" x2="83.06" y2="55.7" gradientUnits="userSpaceOnUse"><stop offset="0" stop-color="#d23274"/><stop offset="1" stop-color="#f24a37"/></linearGradient><linearGradient id="linear-gradient-2" x1="54.11" y1="48.2" x2="63.49" y2="48.2" xlink:href="#linear-gradient"/><linearGradient id="linear-gradient-3" x1="51.61" y1="48.2" x2="66.61" y2="48.2" xlink:href="#linear-gradient"/><linearGradient id="linear-gradient-4" x1="11.34" y1="90.11" x2="66.17" y2="35.29" gradientUnits="userSpaceOnUse"><stop offset="0" stop-color="#f26b1f"/><stop offset="1" stop-color="#d23274"/></linearGradient></defs><title>5_ShiftLeft</title><g id="Layer_2" data-name="Layer 2"><g id="Layer_1-2" data-name="Layer 1"><circle class="cls-1" cx="55.7" cy="55.7" r="27.37"/><path class="cls-2" d="M62.51,63.37V73.56H49V67.78H48.3c-2.11,0-5-2.91-5-5V60.08h-.73c-1.5,0-2.42-2.24-1.63-3.51l3.71-7A13.58,13.58,0,0,1,57.92,37.89c.27,0,.52-.07.79,0,6.35.36,11.14,5.31,12,11.6C71.47,55.55,67.65,61,62.51,63.37Z"/><path class="cls-3" d="M58.32,52.44a.47.47,0,0,0,.79-.34v-2H62.7a.79.79,0,0,0,.79-.78V47.1a.79.79,0,0,0-.79-.78H59.11v-2a.47.47,0,0,0-.79-.34l-4.07,3.91a.48.48,0,0,0-.14.34.45.45,0,0,0,.14.33Z"/><path class="cls-4" d="M59.11,40.7a7.5,7.5,0,1,1-7.5,7.5A7.5,7.5,0,0,1,59.11,40.7Zm0,13.75a6.25,6.25,0,1,0-6.25-6.25A6.26,6.26,0,0,0,59.11,54.45Z"/><circle class="cls-5" cx="55.7" cy="55.7" r="48"/><path class="cls-6" d="M55.7,103.7A48,48,0,0,1,33.25,13.26"/></g></g></svg>