
<svg width="293" height="253" viewBox="0 0 293 253" fill="none" xmlns="http://www.w3.org/2000/svg">
	<style>
		.transdown
		{
			animation: transdownr 4s ease-in-out infinite;
		}

		@keyframes transdownr{
		0%  { transform: translate(0vw,0vh);  }
		50% { transform: translate(0vw,5vh);  }
		100%{  transform: translate(0vw,0vh);  }

	}

				.tickk
	{
		stroke-dasharray: 400;
		stroke-dashoffset: 400;
		stroke: #ffffff;
        animation: ticker 4s ease forwards infinite;
        fill: #ffffff;
        stroke-width:0px;
	}
	@keyframes ticker{
		0% {  stroke-dashoffset: 400; fill: none;stroke-width:1px; fill-opacity: 0.1;}
		100%{ fill: #ffffff;stroke-dashoffset: 0;stroke-width:0px;ill-opacity: 1;}


	}


		.rotate
		{
			animation: rotater 4s linear infinite;
			transform-origin: center;
			transform-box: fill-box;
		}

		@keyframes rotater
		{
			0%{ transform: rotate(0deg); }
			100%{ transform: rotate(360deg); }
		}

				.rotateinv
		{
			animation: rotater 4s linear  infinite;
			transform-origin: center;
			transform-box: fill-box;
			transform: rotate(-180deg); 
		}

		@keyframes rotateinvr
		{
			0%{ transform: rotate(180deg); }
			100%{ transform: rotate(-180deg); }
		}
	</style>
<g id="Layer 1">
<path id="Vector" d="M292.5 229.68H220.36V235.38H292.5V229.68Z" fill="#384857"/>

<path id="Vector_3" d="M218.82 136.14V222.59H72.6V136.14C72.6 134.972 73.0633 133.852 73.8881 133.025C74.713 132.198 75.8321 131.733 77 131.73H214.4C214.98 131.729 215.555 131.842 216.091 132.063C216.627 132.284 217.114 132.608 217.525 133.018C217.935 133.428 218.261 133.914 218.483 134.45C218.706 134.986 218.82 135.56 218.82 136.14V136.14Z" fill="#A80045"/>
<path id="Vector_4" d="M83 140H208.38C209.55 140 210.671 140.465 211.498 141.292C212.325 142.119 212.79 143.24 212.79 144.41V213.79C212.79 214.872 212.36 215.91 211.595 216.675C210.83 217.44 209.792 217.87 208.71 217.87H82.71C81.6279 217.87 80.5902 217.44 79.825 216.675C79.0599 215.91 78.63 214.872 78.63 213.79V144.41C78.63 143.247 79.0891 142.132 79.9075 141.306C80.7259 140.48 81.8373 140.011 83 140V140Z" fill="url(#paint0_linear)"/>
<path id="Vector_5" d="M292.5 229.68H0V252.79H292.5V229.68Z" fill="#FF9750"/>
<path id="Vector_6" d="M222.6 222.59H68.3C64.7654 222.59 61.9 225.453 61.9 228.985C61.9 232.517 64.7654 235.38 68.3 235.38H222.6C226.135 235.38 229 232.517 229 228.985C229 225.453 226.135 222.59 222.6 222.59Z" fill="url(#paint1_linear)"/>
<path id="Vector_7" d="M20.58 191.44L3.54999 196.87L7.69999 185.57L22.92 180.71L33.83 190.65L62.97 181.35L66.11 166.93L81.34 162.07L91 168.98L74.23 174.32L72.33 183.06L78.94 189.09L95.7 183.74L91.83 194.95L76.6 199.81L66.7 190.79L36.26 200.5L33.4 213.58L18.19 218.44L8.25999 211.63L25.29 206.2L27.19 197.46L20.58 191.44Z" fill="url(#paint2_linear)"/>
<g id="gear1" class="rotate">
<path id="Vector_8" fill-rule="evenodd" clip-rule="evenodd" d="M44.17 66.1C45.8456 65.6902 47.362 64.7925 48.5274 63.5207C49.6928 62.2488 50.4548 60.6599 50.7169 58.9549C50.9791 57.2499 50.7296 55.5055 50.0002 53.9423C49.2707 52.3791 48.094 51.0673 46.6189 50.173C45.1438 49.2787 43.4366 48.842 41.7132 48.9182C39.9899 48.9944 38.3278 49.5799 36.9374 50.6009C35.5469 51.6218 34.4905 53.0322 33.9018 54.6537C33.313 56.2751 33.2185 58.0348 33.63 59.71C34.1837 61.953 35.604 63.8851 37.5797 65.0828C39.5553 66.2806 41.9252 66.6464 44.17 66.1ZM37.83 58.68C37.6217 57.8369 37.6681 56.9509 37.9634 56.1342C38.2587 55.3175 38.7897 54.6067 39.489 54.0918C40.1884 53.5769 41.0248 53.281 41.8923 53.2415C42.7599 53.202 43.6197 53.4208 44.3629 53.8701C45.1062 54.3194 45.6994 54.979 46.0677 55.7656C46.4359 56.5521 46.5626 57.4302 46.4317 58.2887C46.3007 59.1473 45.9181 59.9477 45.3322 60.5888C44.7462 61.2298 43.9833 61.6826 43.14 61.89C42.0104 62.165 40.8178 61.9818 39.8228 61.3803C38.8279 60.7789 38.1114 59.808 37.83 58.68V58.68Z" fill="#FF9750"/>
<path id="Vector_9" fill-rule="evenodd" clip-rule="evenodd" d="M55.66 54.3C56.3282 56.9903 56.1827 59.8185 55.242 62.4261C54.3012 65.0337 52.6074 67.3033 50.3754 68.9472C48.1434 70.5912 45.4736 71.5355 42.7043 71.6606C39.9351 71.7856 37.191 71.0857 34.8199 69.6496C32.4488 68.2135 30.5575 66.1058 29.3855 63.5936C28.2136 61.0814 27.8138 58.2778 28.2368 55.5382C28.6599 52.7986 29.8868 50.2462 31.7619 48.2046C33.6371 46.163 36.0761 44.724 38.77 44.07C42.3657 43.1971 46.1608 43.7831 49.3258 45.7001C52.4907 47.617 54.768 50.7089 55.66 54.3ZM35.53 41.78C34.3676 42.2619 33.2611 42.8688 32.23 43.59L27.38 40.13C26.62 40.77 25.9019 41.4581 25.23 42.19L28.49 47.19C27.706 48.1859 27.0353 49.2659 26.49 50.41L20.56 49.84C20.2183 50.7733 19.941 51.7288 19.73 52.7L25.04 55.4C24.8925 56.645 24.8791 57.9022 25 59.15L19.58 61.62C19.7516 62.6014 19.9888 63.5703 20.29 64.52L26.24 64.19C26.7197 65.3534 27.3267 66.4602 28.05 67.49L24.59 72.34C25.2332 73.1034 25.9246 73.8249 26.66 74.5L31.66 71.24C32.6557 72.0242 33.7357 72.695 34.88 73.24L34.3 79.17C35.2379 79.5104 36.1965 79.7909 37.17 80.01L39.86 74.69C41.1098 74.8564 42.3742 74.8832 43.63 74.77L46.09 80.2C47.0706 80.0203 48.0392 79.7798 48.99 79.48L48.67 73.48C49.8447 73.0041 50.9618 72.3969 52 71.67L56.85 75.14C57.6076 74.4939 58.3256 73.8026 59 73.07L55.74 68.07C56.5239 67.0741 57.1947 65.9941 57.74 64.85L63.67 65.43C64.0058 64.4914 64.283 63.5329 64.5 62.56L59.19 59.87C59.3515 58.6198 59.3783 57.3559 59.27 56.1L64.69 53.63C64.5195 52.6516 64.2823 51.686 63.98 50.74L58 51.07C57.5185 49.9054 56.9081 48.7985 56.18 47.77L59.65 42.92C59.0092 42.1575 58.3176 41.4392 57.58 40.77L52.58 44.02C51.5818 43.2393 50.5022 42.5687 49.36 42.02L49.94 36.09C48.9788 35.7636 47.9966 35.503 47 35.31L44.31 40.62C43.0598 40.4584 41.7959 40.4316 40.54 40.54L38.08 35.12C37.0985 35.2916 36.1297 35.5288 35.18 35.83L35.53 41.78Z" fill="#C00F58"/>
</g>
<g id="gear2" class="rotateinv">
<path id="Vector_10" fill-rule="evenodd" clip-rule="evenodd" d="M79.34 27.8C79.7743 29.1843 79.7887 30.6663 79.3812 32.0588C78.9737 33.4512 78.1627 34.6917 77.0506 35.6235C75.9385 36.5553 74.5753 37.1366 73.133 37.294C71.6907 37.4514 70.2341 37.1778 68.9472 36.5079C67.6603 35.8379 66.6008 34.8016 65.9026 33.5298C65.2043 32.258 64.8986 30.8078 65.0241 29.3624C65.1496 27.917 65.7007 26.5412 66.6077 25.4088C67.5147 24.2764 68.7369 23.4381 70.12 23C71.0405 22.7084 72.0096 22.6013 72.9715 22.6848C73.9335 22.7683 74.8696 23.0409 75.7261 23.4867C76.5826 23.9326 77.3426 24.5432 77.9628 25.2833C78.5829 26.0234 79.0509 26.8787 79.34 27.8V27.8ZM68.06 21.35C67.4225 21.6657 66.8221 22.0514 66.27 22.5L63.41 20.73C63.0067 21.1288 62.6292 21.553 62.28 22L64.28 24.69C63.878 25.2776 63.5426 25.9082 63.28 26.57L60 26.44C59.8504 26.9798 59.7303 27.5272 59.64 28.08L62.73 29.4C62.6881 30.1082 62.7216 30.8189 62.83 31.52L59.83 33.11C59.9683 33.6529 60.1386 34.1872 60.34 34.71L63.68 34.31C63.99 34.94 63.07 36.78 63.51 37.31L63.05 39C63.4399 39.4084 63.8576 39.7893 64.3 40.14L66.98 38.14C67.5698 38.5444 68.2039 38.8799 68.87 39.14L68.77 42.5C69.3068 42.6611 69.8551 42.7815 70.41 42.86L71.72 39.77C72.4279 39.8153 73.1385 39.7851 73.84 39.68L75.44 42.68C75.9762 42.4924 76.4976 42.2651 77 42L76.59 38.67C77.2252 38.3541 77.8252 37.972 78.38 37.53L81.24 39.29C81.6424 38.9009 82.0198 38.4867 82.37 38.05L80.37 35.36C80.772 34.7724 81.1074 34.1418 81.37 33.48L84.73 33.58C84.8775 33.06 84.9977 32.5326 85.09 32L82 30.64C82.042 29.9318 82.0085 29.2211 81.9 28.52L84.9 26.93C84.7617 26.3871 84.5914 25.8528 84.39 25.33L81.05 25.73C80.7368 25.0933 80.3545 24.493 79.91 23.94L81.68 21.09C81.2756 20.6974 80.8446 20.3332 80.39 20L77.71 22C77.1202 21.5956 76.4861 21.2601 75.82 21L75.92 17.64C75.3832 17.4789 74.835 17.3585 74.28 17.28L73 20.37C72.2918 20.3232 71.5806 20.3567 70.88 20.47L69.28 17.47C68.7349 17.6006 68.2001 17.771 67.68 17.98L68.06 21.35Z" fill="#FF9750"/>
<path id="Vector_11" d="M71.31 26.77C71.9529 26.5661 72.6419 26.5574 73.2897 26.7451C73.9376 26.9328 74.5152 27.3084 74.9496 27.8244C75.384 28.3404 75.6556 28.9737 75.73 29.644C75.8045 30.3144 75.6784 30.9918 75.3679 31.5905C75.0573 32.1893 74.5762 32.6825 73.9853 33.0077C73.3944 33.333 72.7203 33.4757 72.0483 33.4179C71.3763 33.36 70.7366 33.1042 70.21 32.6827C69.6834 32.2612 69.2936 31.693 69.09 31.05C68.817 30.188 68.8975 29.253 69.3138 28.4504C69.7301 27.6477 70.4481 27.0433 71.31 26.77Z" fill="#C00F58"/>
</g>
<g id="logo" class="tickk">
<path id="Vector_12" d="M137.68 163.5C138.882 163.528 140.072 163.741 141.21 164.13C142.695 164.619 144.131 165.245 145.5 166C148.948 167.978 152.111 170.417 154.9 173.25C156.856 175.192 158.636 177.304 160.22 179.56C161.55 181.433 162.673 183.445 163.57 185.56C164.247 187.106 164.63 188.764 164.7 190.45C164.771 190.973 164.721 191.506 164.552 192.006C164.383 192.507 164.101 192.961 163.727 193.334C163.353 193.707 162.897 193.988 162.397 194.156C161.896 194.323 161.363 194.373 160.84 194.3C159.641 194.268 158.454 194.052 157.32 193.66C155.829 193.162 154.389 192.523 153.02 191.75C149.569 189.775 146.406 187.336 143.62 184.5C141.67 182.555 139.893 180.444 138.31 178.19C136.976 176.32 135.852 174.307 134.96 172.19C134.284 170.64 133.901 168.979 133.83 167.29C133.761 166.768 133.812 166.238 133.982 165.74C134.151 165.242 134.432 164.789 134.805 164.417C135.177 164.046 135.631 163.765 136.129 163.598C136.628 163.43 137.159 163.379 137.68 163.45V163.45V163.5ZM137.68 162.24C137 162.2 136.319 162.296 135.677 162.522C135.034 162.749 134.444 163.102 133.94 163.56C130.36 167.15 134.31 176.91 142.77 185.37C149.11 191.72 156.19 195.52 160.84 195.52C161.52 195.561 162.201 195.466 162.844 195.239C163.486 195.013 164.077 194.659 164.58 194.2C168.17 190.62 164.21 180.85 155.75 172.39C149.41 166.05 142.34 162.24 137.68 162.24Z" fill="white"/>
<path id="Vector_13" d="M160.84 162.29V163.5C161.362 163.428 161.894 163.477 162.394 163.644C162.894 163.811 163.348 164.091 163.722 164.463C164.096 164.835 164.378 165.288 164.548 165.787C164.718 166.286 164.77 166.818 164.7 167.34C164.629 169.029 164.246 170.69 163.57 172.24C162.674 174.355 161.551 176.367 160.22 178.24C158.636 180.496 156.856 182.608 154.9 184.55C152.114 187.386 148.951 189.825 145.5 191.8C144.135 192.573 142.698 193.212 141.21 193.71C140.073 194.102 138.882 194.318 137.68 194.35C137.158 194.421 136.626 194.37 136.127 194.202C135.627 194.034 135.173 193.752 134.8 193.38C134.428 193.007 134.146 192.553 133.978 192.053C133.81 191.554 133.759 191.022 133.83 190.5C133.9 188.814 134.283 187.156 134.96 185.61C135.853 183.493 136.976 181.481 138.31 179.61C139.893 177.356 141.67 175.245 143.62 173.3C146.4 170.451 149.556 167.995 153 166C154.371 165.231 155.81 164.592 157.3 164.09C158.434 163.701 159.621 163.489 160.82 163.46V162.25L160.84 162.29ZM160.82 162.25C156.17 162.25 149.09 166.06 142.75 172.4C134.29 180.86 130.34 190.63 133.92 194.21C134.424 194.668 135.014 195.021 135.657 195.248C136.299 195.474 136.98 195.57 137.66 195.53C142.32 195.53 149.39 191.72 155.73 185.38C164.19 176.92 168.15 167.16 164.56 163.57C164.057 163.111 163.466 162.757 162.824 162.531C162.181 162.304 161.5 162.209 160.82 162.25V162.25Z" fill="white"/>
<path id="Vector_14" d="M149.26 171C152.015 170.988 154.766 171.223 157.48 171.7C159.753 172.085 161.976 172.718 164.11 173.59C165.683 174.204 167.128 175.106 168.37 176.25C168.789 176.569 169.128 176.981 169.362 177.452C169.595 177.924 169.717 178.444 169.717 178.97C169.717 179.496 169.595 180.016 169.362 180.488C169.128 180.959 168.789 181.371 168.37 181.69C167.128 182.834 165.683 183.736 164.11 184.35C161.978 185.226 159.754 185.86 157.48 186.24C152.04 187.173 146.48 187.173 141.04 186.24C138.766 185.86 136.542 185.226 134.41 184.35C132.837 183.736 131.392 182.834 130.15 181.69C129.731 181.371 129.392 180.959 129.158 180.488C128.925 180.016 128.803 179.496 128.803 178.97C128.803 178.444 128.925 177.924 129.158 177.452C129.392 176.981 129.731 176.569 130.15 176.25C131.392 175.106 132.837 174.204 134.41 173.59C136.544 172.718 138.767 172.085 141.04 171.7C143.754 171.223 146.505 170.989 149.26 171V171ZM149.26 169.79C137.26 169.79 127.6 173.9 127.6 178.97C127.6 184.04 137.3 188.15 149.26 188.15C161.22 188.15 170.93 184.04 170.93 178.97C170.93 173.9 161.23 169.79 149.26 169.79Z" fill="white"/>
<path id="Vector_15" d="M149.26 158.47C149.78 158.503 150.289 158.64 150.756 158.872C151.223 159.103 151.639 159.426 151.98 159.82C153.124 161.062 154.026 162.507 154.64 164.08C155.516 166.212 156.15 168.436 156.53 170.71C157.477 176.149 157.477 181.711 156.53 187.15C156.15 189.424 155.516 191.648 154.64 193.78C154.028 195.337 153.133 196.768 152 198C151.681 198.419 151.269 198.758 150.798 198.992C150.326 199.225 149.806 199.347 149.28 199.347C148.754 199.347 148.234 199.225 147.762 198.992C147.291 198.758 146.879 198.419 146.56 198C145.416 196.758 144.514 195.313 143.9 193.74C143.028 191.606 142.395 189.383 142.01 187.11C141.077 181.67 141.077 176.11 142.01 170.67C142.395 168.397 143.028 166.174 143.9 164.04C144.514 162.467 145.416 161.022 146.56 159.78C147.254 158.99 148.231 158.505 149.28 158.43L149.26 158.47ZM149.28 157.23C144.21 157.23 140.1 166.93 140.1 178.89C140.1 190.85 144.21 200.56 149.28 200.56C154.35 200.56 158.46 190.86 158.46 178.89C158.46 166.92 154.35 157.23 149.28 157.23Z" fill="white"/>
<path id="Vector_16" d="M149.26 173.51C146.97 173.51 144.5 174.08 144.5 175.32V182.54C144.5 183.78 146.97 184.35 149.25 184.35H149.31C149.979 184.351 150.648 184.3 151.31 184.2C153.03 183.91 154.03 183.31 154.03 182.54V175.32C154 174.08 151.55 173.51 149.26 173.51ZM152.74 182.51C152.258 182.868 151.68 183.074 151.08 183.1C150.479 183.202 149.87 183.248 149.26 183.24C147.09 183.24 145.95 182.73 145.79 182.51V181.41C148.07 182.114 150.51 182.114 152.79 181.41L152.74 182.51ZM145.74 176.61C148.02 177.314 150.46 177.314 152.74 176.61V177.7C152.57 177.91 151.44 178.43 149.26 178.43C147.08 178.43 145.95 177.91 145.79 177.7L145.74 176.61ZM145.74 180.1V179C148.02 179.704 150.46 179.704 152.74 179V180.09C152.57 180.3 151.43 180.82 149.26 180.82C147.09 180.82 146 180.32 145.79 180.11L145.74 180.1ZM149.22 174.6C151.34 174.6 152.5 175.09 152.67 175.31C152.5 175.54 151.34 176.03 149.22 176.03C147.1 176.03 145.93 175.54 145.77 175.31C146 175.1 147.15 174.61 149.27 174.61L149.22 174.6Z" fill="white"/>
</g>
<g id="top" class="transdown">
<path id="Vector_17" d="M214.9 54.93C214.9 57.82 214.9 60.72 214.9 63.62C214.895 63.8621 214.936 64.103 215.02 64.33C216.07 67.07 217.11 69.8 218.14 72.54C218.181 72.7123 218.284 72.8632 218.43 72.9631C218.577 73.063 218.755 73.1047 218.93 73.08C219.45 73.08 219.93 73.08 220.49 73.08C223.01 73.08 225.53 73.08 228.05 73.08C228.225 73.1047 228.403 73.063 228.55 72.9631C228.696 72.8632 228.799 72.7123 228.84 72.54C229.84 69.85 230.84 67.17 231.84 64.49C231.931 64.2295 231.978 63.9559 231.98 63.68C231.98 60.75 231.98 57.82 231.98 54.89C231.98 54.41 231.82 54.28 231.36 54.28H215.54C215 54.27 214.9 54.44 214.9 54.93ZM221.78 60.65C221.776 60.4378 221.814 60.227 221.893 60.03C221.972 59.8329 222.089 59.6536 222.238 59.5027C222.388 59.3517 222.565 59.2321 222.761 59.1509C222.957 59.0697 223.168 59.0286 223.38 59.03C223.594 59.03 223.806 59.0722 224.004 59.1541C224.202 59.236 224.381 59.3561 224.533 59.5074C224.684 59.6588 224.804 59.8385 224.886 60.0362C224.968 60.234 225.01 60.4459 225.01 60.66C225.01 60.8741 224.968 61.086 224.886 61.2838C224.804 61.4815 224.684 61.6612 224.533 61.8126C224.381 61.9639 224.202 62.084 224.004 62.1659C223.806 62.2478 223.594 62.29 223.38 62.29C223.166 62.2901 222.955 62.2474 222.758 62.1645C222.562 62.0816 222.383 61.9602 222.234 61.8073C222.085 61.6545 221.968 61.4733 221.89 61.2746C221.812 61.0758 221.775 60.8635 221.78 60.65Z" fill="url(#paint5_linear)"/>
<path id="Vector_18" d="M216.59 46.16V54.28C216.59 54.94 216.59 54.95 217.26 54.95C217.75 54.95 218.26 54.95 218.73 54.95C219.2 54.95 219.27 54.82 219.26 54.42V54.29C219.26 52.65 219.26 51.03 219.26 49.39C219.26 47.75 219.26 7.61 219.26 0H216.58C216.6 7.7 216.59 45.6 216.59 46.16Z" fill="#A80045"/>
<path id="Vector_19" d="M226.81 49.4C226.81 51.03 226.81 52.66 226.81 54.29V54.38C226.81 54.83 226.96 54.98 227.4 54.96C227.84 54.94 228.4 54.96 228.96 54.96C229.28 54.96 229.43 54.87 229.43 54.52V54.29C229.43 49.69 229.43 8.59 229.43 0.0100021H226.8C226.81 7.94 226.81 47.85 226.81 49.4Z" fill="#A80045"/>
<path id="Vector_20" d="M223.42 73.09C222.42 73.09 221.47 73.09 220.5 73.09C220.11 73.09 219.98 73.23 219.99 73.61C219.99 74.14 219.99 74.68 219.99 75.22C219.99 75.55 220.09 75.72 220.46 75.72C222.46 75.72 224.46 75.72 226.41 75.72C226.73 75.72 226.89 75.64 226.88 75.29C226.88 74.7 226.88 74.12 226.88 73.53C226.88 73.21 226.75 73.1 226.44 73.11L223.42 73.09Z" fill="#A80045"/>
<path id="Vector_21" d="M199.86 107.2C194.701 103.798 188.467 102.422 182.356 103.336C176.244 104.25 170.686 107.39 166.749 112.153C162.811 116.916 160.773 122.965 161.024 129.14C161.275 135.314 163.799 141.178 168.111 145.605C172.422 150.032 178.218 152.71 184.383 153.124C190.549 153.538 196.65 151.66 201.515 147.849C206.38 144.039 209.666 138.565 210.741 132.48C211.816 126.395 210.605 120.127 207.34 114.88L211.12 111.41L203.89 103.51L199.86 107.2ZM201.29 114.14C204.054 117.16 205.861 120.933 206.481 124.98C207.101 129.027 206.507 133.167 204.774 136.877C203.041 140.586 200.247 143.699 196.745 145.82C193.243 147.941 189.191 148.977 185.1 148.795C181.01 148.613 177.065 147.222 173.766 144.798C170.466 142.375 167.959 139.027 166.562 135.178C165.165 131.329 164.941 127.153 165.918 123.176C166.894 119.2 169.029 115.603 172.05 112.84C174.055 111.005 176.402 109.582 178.957 108.654C181.511 107.726 184.224 107.311 186.939 107.432C189.655 107.552 192.32 108.207 194.782 109.358C197.244 110.509 199.456 112.134 201.29 114.14V114.14Z" fill="url(#paint6_linear)"/>
<path id="Vector_22" d="M229.42 104.09C230.42 103.78 231.47 103.64 232.42 103.24C233.771 102.708 235.003 101.911 236.042 100.896C237.081 99.8808 237.906 98.6685 238.47 97.33C239.959 94.1017 240.312 90.4642 239.47 87.01C238.31 82.28 235.04 79.82 230.42 78.93C229.359 78.699 228.276 78.5816 227.19 78.58C226.61 78.58 226.41 78.36 226.39 77.78C226.39 75.71 226.32 75.71 224.24 75.71C223.24 75.71 222.31 75.71 221.35 75.71C220.66 75.71 220.35 75.88 220.29 76.71C220.15 79.15 220.23 81.59 220.17 84.02C220.17 84.72 220.43 84.92 221.1 84.79C222.488 84.5117 223.896 84.3479 225.31 84.3C228.48 84.24 230.06 85.41 230.67 88.56C230.946 89.5183 231.016 90.524 230.876 91.5114C230.737 92.4988 230.39 93.4456 229.86 94.29C228.26 96.57 223.23 97.78 220.76 94.29C220.36 93.72 220.03 93.11 219.64 92.53C219.167 91.7556 218.507 91.1125 217.721 90.6599C216.935 90.2073 216.047 89.9597 215.14 89.94C214.38 89.94 213.83 90.17 213.7 90.94C213.662 91.3042 213.766 91.669 213.989 91.9593C214.212 92.2495 214.538 92.4431 214.9 92.5C215.1 92.5 215.32 92.5 215.52 92.58C215.823 92.6006 216.106 92.7404 216.307 92.9691C216.507 93.1977 216.609 93.4965 216.59 93.8C216.641 95.3975 216.98 96.9727 217.59 98.45C218.142 99.8115 219.025 101.014 220.158 101.95C221.291 102.886 222.639 103.525 224.08 103.81C224.37 103.88 224.65 103.98 224.94 104.06L229.42 104.09Z" fill="#A80045"/>
<path id="Vector_23" d="M172.05 112.84C169.029 115.603 166.894 119.2 165.918 123.176C164.941 127.153 165.165 131.329 166.562 135.178C167.959 139.027 170.466 142.375 173.766 144.798C177.065 147.222 181.01 148.613 185.1 148.795C189.191 148.977 193.243 147.942 196.745 145.82C200.247 143.699 203.041 140.586 204.774 136.877C206.507 133.167 207.101 129.027 206.481 124.98C205.861 120.933 204.054 117.16 201.29 114.14C197.584 110.091 192.422 107.68 186.939 107.436C181.456 107.192 176.1 109.136 172.05 112.84V112.84ZM199.79 115.51C202.282 118.232 203.91 121.632 204.47 125.279C205.029 128.927 204.495 132.659 202.933 136.002C201.372 139.346 198.855 142.152 195.699 144.065C192.544 145.978 188.892 146.913 185.205 146.751C181.519 146.589 177.963 145.337 174.987 143.154C172.012 140.971 169.751 137.955 168.489 134.487C167.228 131.019 167.023 127.255 167.901 123.671C168.778 120.086 170.699 116.843 173.42 114.35C177.073 111.011 181.901 109.258 186.845 109.475C191.789 109.693 196.445 111.863 199.79 115.51V115.51Z" fill="#A80045"/>
<path id="Vector_24" opacity="0.15" d="M199.79 115.51C202.282 118.232 203.91 121.632 204.47 125.279C205.029 128.927 204.494 132.659 202.933 136.002C201.372 139.346 198.855 142.152 195.699 144.065C192.544 145.978 188.892 146.913 185.205 146.751C181.519 146.589 177.963 145.337 174.987 143.154C172.012 140.971 169.751 137.955 168.489 134.487C167.228 131.019 167.023 127.255 167.901 123.671C168.778 120.086 170.699 116.843 173.42 114.35C177.073 111.011 181.901 109.258 186.845 109.475C191.789 109.693 196.445 111.863 199.79 115.51V115.51Z" fill="white"/>
<path id="Vector_25" d="M178.36 118.45C180.606 116.664 183.404 115.719 186.273 115.777C189.141 115.836 191.899 116.894 194.07 118.77L195.62 117.35C195.378 117.12 195.125 116.903 194.86 116.7C192.385 114.784 189.355 113.724 186.225 113.681C183.096 113.638 180.037 114.613 177.51 116.46L178.36 118.45Z" fill="#384857"/>
<path id="Vector_26" d="M177.51 116.46C180.037 114.613 183.096 113.638 186.225 113.681C189.355 113.724 192.385 114.784 194.86 116.7C195.125 116.903 195.378 117.12 195.62 117.35L194.07 118.77C191.899 116.894 189.141 115.836 186.273 115.777C183.404 115.719 180.606 116.664 178.36 118.45L177.51 116.46Z" fill="white"/>
<path id="Vector_27" d="M205.732 101.831L212.963 109.731L214.8 108.049L207.568 100.149L205.732 101.831Z" fill="url(#paint7_linear)"/>
<path id="Vector_28" d="M207.571 100.151L214.802 108.051L247.037 78.5449L239.805 70.6448L207.571 100.151Z" fill="url(#paint8_linear)"/>
<path id="Vector_29" d="M203.647 103.233L211.391 111.694L213.228 110.013L205.483 101.552L203.647 103.233Z" fill="#A80045"/>
<path id="Vector_30" d="M226.011 81.8036L234.694 91.2895L245.22 81.6543L236.537 72.1684L226.011 81.8036Z" fill="url(#paint9_linear)"/>
</g>
<path id="Vector_31" d="M36.26 200.51L43.82 198.09L42.82 209.25C42.7518 209.805 42.5678 210.34 42.28 210.82L31.54 227.33L27.16 226.33L35.92 208.82L36.26 200.51Z" fill="#1C468A"/>
<path id="Vector_32" d="M43.5 198.19L51 195.82L57.1 204.57C57.606 206.653 57.606 208.827 57.1 210.91C56.28 214.61 54.39 227.33 54.39 227.33H50.39L51.24 210.33C51.3248 208.906 50.8835 207.5 50 206.38L43.5 198.19Z" fill="#1C468A"/>
<path id="Vector_33" d="M49.73 227.64V230.35H58.06C58.06 230.35 58.49 229.35 56.7 228.25C54.91 227.15 54.38 227.33 54.38 227.33L49.73 227.64Z" fill="#333333"/>
<path id="Vector_34" d="M26 229.92L26.68 226.34L31.55 227.34C31.55 227.34 33.83 228.7 34.08 229.62C34.33 230.54 34.08 230.36 34.08 230.36L26 229.92Z" fill="#333333"/>
<path id="Vector_35" d="M49.52 177.08L53.46 184.39L49.33 185.71L49.52 177.08Z" fill="#A80045"/>
<path id="Vector_36" d="M40.61 190.62C40.61 190.62 40.48 191.62 40.44 192.62C40.4 193.62 41.49 194.92 42.68 194.53C43.87 194.14 44.23 192.27 44.12 191.88C44.01 191.49 44.04 190.88 44.39 191.22C44.74 191.56 45.23 192.09 45.25 191.51C45.2472 191.323 45.2037 191.138 45.1224 190.97C45.0412 190.801 44.9242 190.652 44.7795 190.533C44.6349 190.414 44.4661 190.328 44.2848 190.281C44.1036 190.234 43.9143 190.227 43.73 190.26C42.64 190.31 40.61 190.62 40.61 190.62Z" fill="#FFD0C5"/>
<path id="Vector_37" d="M43.32 171.28L44.64 169.63L48.5 170.45L49.5 171.97C49.5 171.97 49.5 173.5 49.95 177.78C50.0117 180.435 49.8209 183.091 49.38 185.71L37.74 189.42C37.9155 187.248 38.216 185.088 38.64 182.95C39.18 180.85 42.43 173.41 42.43 173.41L43.32 171.28Z" fill="url(#paint10_linear)"/>
<path id="Vector_38" d="M45.62 169.84L45.95 168.31L48.19 169.63L47.7 170.6L45.62 169.84Z" fill="#FFD0C5"/>
<path id="Vector_39" d="M44.88 166.2C45.0617 167.171 45.596 168.04 46.38 168.64C47.63 169.53 49.77 170.35 50.47 169.01C50.7513 168.35 51.1787 167.762 51.72 167.29C51.95 167.04 52.21 163.22 51.72 162.7C51.23 162.18 43.89 161.22 44.88 166.2Z" fill="#FFD0C5"/>
<path id="Vector_40" d="M46.13 168.23C46.13 168.23 43.61 165.91 43.51 163.69C43.4837 162.77 43.8028 161.874 44.4044 161.179C45.0059 160.483 45.8463 160.037 46.76 159.93C48.3 159.74 49.41 160.3 48.91 159C48.41 157.7 51.91 158.57 52.34 159.93C52.77 161.29 53.93 163.57 50.34 164.06C46.75 164.55 45.8 163.14 45.83 164.18C45.86 165.22 46.2 165.88 45.77 165.88C45.34 165.88 44.89 165.88 45.05 166.57C45.2957 167.19 45.6629 167.754 46.13 168.23V168.23Z" fill="#333333"/>
<path id="Vector_41" d="M40.21 188.42C40.21 188.42 40.44 178.52 41.71 176.82C42.98 175.12 43.93 173.54 43.82 176.44C43.71 179.34 43.25 187.33 43.25 187.33L40.21 188.42Z" fill="#A80045"/>
<path id="Vector_42" d="M61 192.44C61 192.44 60.2 191.87 61.6 190.76C63 189.65 63.69 188.83 64.76 189.65C65.83 190.47 66.2 192.06 64.66 192.57C63.12 193.08 62 193.15 61 192.44Z" fill="#FFD0C5"/>
<path id="Vector_43" d="M43.32 171.28C42.71 171.35 40.61 174.36 40.61 174.36C40.61 174.36 36.48 178.92 36.61 179.66C36.74 180.4 40.52 190.45 40.52 190.45H43.64L42.16 178.37C42.16 178.37 45.49 177.2 45.74 175.1C45.73 175.1 47 170.84 43.32 171.28Z" fill="url(#paint11_linear)"/>
<path id="Vector_44" d="M245.31 187L244.53 187.63C244.239 187.533 243.929 187.504 243.625 187.546C243.32 187.587 243.03 187.699 242.776 187.871C242.521 188.043 242.31 188.271 242.158 188.538C242.006 188.805 241.918 189.103 241.9 189.41C241.9 189.41 241.77 190.49 242.46 190.49C243.15 190.49 242.86 190.38 243.84 190.4C244.259 190.454 244.684 190.356 245.036 190.122C245.389 189.889 245.646 189.537 245.76 189.13L246.22 188.46L245.31 187Z" fill="#FF8E4B"/>
<path id="Vector_45" d="M245.4 188.39C245.231 188.252 245.092 188.08 244.992 187.885C244.892 187.691 244.834 187.478 244.82 187.26C244.82 187.26 252.05 181.34 252.82 180.86C255.76 178.4 258.535 175.751 261.13 172.93C262.37 171.51 263.9 172.06 265.65 172.56L267.09 172.97C267.492 173.11 267.85 173.354 268.127 173.677C268.404 174 268.591 174.39 268.668 174.809C268.745 175.228 268.71 175.659 268.567 176.06C268.423 176.46 268.176 176.816 267.85 177.09C263.85 180.42 257.15 184.16 255.85 184.95C252.899 186.597 249.831 188.024 246.67 189.22C246.194 189.033 245.762 188.751 245.4 188.39V188.39Z" fill="#003B72"/>
<path id="Vector_46" d="M237.15 224.75C236.496 225.161 235.762 225.429 234.996 225.536C234.231 225.643 233.452 225.586 232.71 225.37C232.71 225.37 230.54 224.87 230.06 225.95C230.06 225.95 233.39 227.64 234.23 228.11C234.865 228.481 235.456 228.924 235.99 229.43C236.078 229.509 236.181 229.57 236.293 229.608C236.405 229.646 236.524 229.661 236.642 229.651C236.759 229.642 236.874 229.609 236.979 229.553C237.083 229.498 237.176 229.422 237.25 229.33C237.4 229.15 237.57 228.94 237.75 228.69C238.26 227.99 239.46 225.75 239.46 225.75L237.15 224.75Z" fill="#333333"/>
<path id="Vector_47" d="M236.12 224.08C236.12 224.08 237.19 226.54 239.65 226.08C242.719 223.51 245.557 220.676 248.13 217.61C249.183 216.355 250.07 214.971 250.77 213.49C253.06 208.19 259.24 200.29 263.16 196.28L253.34 192.73C253.34 192.73 250.19 199.06 246 206.84C243 212.45 239.43 218.8 236.12 224.08Z" fill="#163560"/>
<path id="Vector_48" d="M235.69 178.29C235.714 178.412 235.703 178.539 235.659 178.656C235.615 178.772 235.539 178.874 235.44 178.95L233 180.81C232.864 180.912 232.772 181.061 232.743 181.228C232.713 181.396 232.748 181.568 232.84 181.71L234.39 184.16C234.48 184.297 234.617 184.397 234.775 184.441C234.933 184.485 235.102 184.47 235.25 184.4L237.36 183.4C237.494 183.332 237.648 183.311 237.795 183.342C237.942 183.373 238.075 183.454 238.17 183.57C239.166 184.775 240.394 185.767 241.78 186.49C241.914 186.56 242.021 186.673 242.082 186.811C242.144 186.949 242.157 187.104 242.12 187.25L241.66 189.16C241.618 189.32 241.638 189.491 241.716 189.637C241.794 189.783 241.924 189.895 242.08 189.95L244.79 190.95C244.951 191.008 245.128 191.003 245.285 190.936C245.443 190.87 245.57 190.746 245.64 190.59L246.75 188.22C246.803 188.105 246.887 188.007 246.994 187.938C247.1 187.869 247.223 187.832 247.35 187.83C247.724 187.826 248.098 187.803 248.47 187.76C249.147 187.686 249.816 187.552 250.47 187.36C250.603 187.321 250.745 187.323 250.877 187.366C251.009 187.409 251.125 187.49 251.21 187.6L252.89 189.82C252.993 189.951 253.14 190.04 253.305 190.069C253.469 190.099 253.638 190.067 253.78 189.98L256.22 188.43C256.362 188.339 256.466 188.199 256.512 188.037C256.558 187.875 256.543 187.702 256.47 187.55L255.31 185.19C255.249 185.062 255.229 184.919 255.252 184.78C255.275 184.64 255.341 184.511 255.44 184.41C256.308 183.55 257.034 182.558 257.59 181.47C257.662 181.338 257.776 181.234 257.913 181.172C258.05 181.111 258.204 181.096 258.35 181.13L260.62 181.69C260.784 181.73 260.957 181.708 261.107 181.629C261.256 181.55 261.371 181.418 261.43 181.26L262.43 178.53C262.482 178.374 262.476 178.205 262.411 178.053C262.347 177.902 262.229 177.78 262.08 177.71L259.3 176.42C259.184 176.365 259.085 176.279 259.014 176.171C258.944 176.064 258.904 175.939 258.9 175.81C258.9 175.49 258.9 175.16 258.83 174.81C258.766 174.206 258.656 173.607 258.5 173.02C258.465 172.893 258.47 172.758 258.513 172.633C258.555 172.508 258.635 172.399 258.74 172.32L261.28 170.39C261.416 170.288 261.508 170.139 261.537 169.972C261.567 169.804 261.532 169.632 261.44 169.49L259.92 167C259.831 166.861 259.694 166.76 259.536 166.716C259.377 166.672 259.208 166.687 259.06 166.76L256.45 168.04C256.322 168.105 256.176 168.127 256.034 168.104C255.892 168.08 255.761 168.012 255.66 167.91C255.03 167.253 254.326 166.672 253.56 166.18C253.445 166.104 253.356 165.993 253.306 165.864C253.256 165.736 253.247 165.594 253.28 165.46L253.86 163.07C253.902 162.906 253.882 162.731 253.802 162.582C253.723 162.432 253.59 162.317 253.43 162.26L250.73 161.26C250.569 161.204 250.393 161.21 250.236 161.277C250.079 161.343 249.952 161.466 249.88 161.62L248.79 164C248.734 164.119 248.642 164.219 248.528 164.285C248.413 164.351 248.282 164.381 248.15 164.37C247.415 164.3 246.675 164.3 245.94 164.37C245.391 164.433 244.846 164.534 244.31 164.67L242.59 162.41C242.49 162.275 242.342 162.183 242.177 162.154C242.011 162.124 241.841 162.158 241.7 162.25L239.25 163.8C239.11 163.887 239.006 164.023 238.96 164.182C238.914 164.341 238.928 164.511 239 164.66L239.8 166.27C239.863 166.405 239.881 166.557 239.85 166.703C239.819 166.849 239.742 166.982 239.63 167.08C238.674 167.888 237.854 168.843 237.2 169.91C237.129 170.031 237.02 170.126 236.89 170.18C236.76 170.234 236.616 170.245 236.48 170.21L233.61 169.51C233.455 169.473 233.292 169.495 233.152 169.571C233.012 169.646 232.905 169.77 232.85 169.92L231.85 172.67C231.795 172.827 231.8 172.999 231.865 173.153C231.929 173.306 232.049 173.43 232.2 173.5L235.1 174.84C235.221 174.898 235.323 174.991 235.392 175.107C235.462 175.222 235.496 175.355 235.49 175.49C235.46 176.094 235.48 176.699 235.55 177.3C235.58 177.65 235.63 178 235.69 178.29ZM241.99 179.74C241.208 178.597 240.817 177.232 240.874 175.849C240.932 174.465 241.435 173.138 242.309 172.064C243.183 170.99 244.38 170.227 245.723 169.889C247.066 169.552 248.482 169.657 249.76 170.19C250.813 170.639 251.721 171.374 252.38 172.31C253.177 173.442 253.586 174.802 253.546 176.185C253.506 177.569 253.019 178.903 252.157 179.987C251.296 181.071 250.107 181.847 248.769 182.199C247.43 182.551 246.013 182.46 244.73 181.94C243.628 181.483 242.681 180.72 242 179.74H241.99Z" fill="#A80045"/>
<path id="Vector_49" d="M246 206.85L248.13 217.62C249.183 216.365 250.07 214.981 250.77 213.5C253.06 208.2 259.24 200.3 263.16 196.29L253.34 192.74C253.34 192.74 250.19 199.07 246 206.85Z" fill="#0C3563"/>
<path id="Vector_50" d="M254 226.18C254 226.476 253.941 226.769 253.826 227.041C253.712 227.314 253.544 227.561 253.332 227.768C253.121 227.975 252.87 228.137 252.595 228.246C252.32 228.354 252.026 228.407 251.73 228.4C251.73 228.4 250.29 228.4 250.29 229.68H257.29C257.452 229.169 257.536 228.636 257.54 228.1C257.394 227.071 257.122 226.063 256.73 225.1L254 226.18Z" fill="#333333"/>
<path id="Vector_51" d="M256.56 192.74C253.316 196.719 250.884 201.295 249.4 206.21C247.89 210.93 252.17 222.78 253.01 226.9C254.641 227.029 256.282 226.856 257.85 226.39C257.916 221.348 257.582 216.309 256.85 211.32C256.2 207.65 262.61 203.48 265.41 196.85C267.31 192.33 265 192.41 262.15 192.3L256.56 192.74Z" fill="#0D458D"/>
<path id="Vector_52" d="M261.61 171.28C264.05 172.66 269.03 171.39 269.03 171.39C268.406 170.538 267.983 169.555 267.792 168.516C267.602 167.477 267.649 166.408 267.93 165.39L266.02 166.39L263.96 167.39C263.854 167.999 263.781 168.613 263.74 169.23C263.74 169.53 263.72 169.863 263.68 170.23C262.933 170.453 262.232 170.809 261.61 171.28V171.28Z" fill="#FFD0C5"/>
<path id="Vector_53" d="M252.68 192.49C252.68 192.92 253.18 193.12 253.28 193.14C255.31 193.781 257.382 194.282 259.48 194.64C261.533 194.818 263.601 194.676 265.61 194.22C265.89 194.16 266.55 193.99 266.61 193.72C266.67 193.45 274.79 177.15 268.47 170.16C267.61 170.146 266.754 170.281 265.94 170.56C264.98 170.786 263.972 170.706 263.06 170.33L261.99 170.89C260.67 171.62 258.19 174.22 257.9 176.26C257.75 177.26 257.16 178.07 256.99 178.98C256.92 179.32 256.86 179.65 256.79 179.98C256.66 180.61 256.53 181.21 256.39 181.78C256.02 183.32 255.63 184.65 255.24 185.78C254.85 186.91 254.43 188.01 254.07 188.86C253.6 189.96 253.21 190.78 252.97 191.41C252.807 191.749 252.708 192.115 252.68 192.49V192.49Z" fill="url(#paint12_linear)"/>
<path id="Vector_54" d="M253 191.42C259.859 188.162 265.333 182.568 268.44 175.64C268.44 175.64 259.12 179.07 256.82 179.97C256.69 180.6 256.56 181.2 256.42 181.77C256.05 183.31 255.66 184.64 255.27 185.77C254.88 186.9 254.46 188 254.1 188.85C253.59 190 253.2 190.79 253 191.42Z" fill="#A80045"/>
<path id="Vector_55" d="M246.24 188.29L245.24 188.65C244.982 188.458 244.684 188.327 244.368 188.268C244.051 188.208 243.726 188.221 243.416 188.306C243.105 188.391 242.819 188.545 242.577 188.757C242.335 188.969 242.145 189.233 242.02 189.53C242.02 189.53 241.57 190.53 242.28 190.74C242.99 190.95 242.73 190.74 243.73 191.09C244.132 191.277 244.588 191.318 245.017 191.205C245.446 191.092 245.822 190.832 246.08 190.47L246.75 189.97L246.24 188.29Z" fill="#FFB079"/>
<path id="Vector_56" d="M245.43 189.69L244.89 188.3C244.89 188.3 252.38 182.19 253.15 181.67C256.116 179.525 258.868 177.101 261.37 174.43C261.985 173.695 262.788 173.141 263.693 172.827C264.599 172.514 265.572 172.452 266.51 172.65L268.08 172.98C268.503 173.076 268.891 173.289 269.2 173.593C269.509 173.897 269.728 174.281 269.832 174.702C269.935 175.123 269.92 175.565 269.787 175.977C269.655 176.39 269.41 176.758 269.08 177.04C264.93 180.6 257.94 184.72 256.63 185.58C253.281 187.513 249.806 189.22 246.23 190.69C245.852 190.463 245.568 190.108 245.43 189.69V189.69Z" fill="url(#paint13_linear)"/>
<path id="Vector_57" d="M263.74 169.2C264.493 169.201 265.237 169.036 265.919 168.718C266.602 168.4 267.206 167.937 267.69 167.36C267.117 167.055 266.559 166.721 266.02 166.36L263.96 167.36C263.854 167.969 263.781 168.583 263.74 169.2Z" fill="#F7BAAD"/>
<path id="Vector_58" d="M262.72 166.74C262.72 166.74 266.35 169.35 267.93 167.06C269.51 164.77 271.06 163.57 268.81 161.81C266.56 160.05 265.5 160.61 264.81 161.24C264.12 161.87 261.81 166 262.72 166.74Z" fill="#FFD0C5"/>
<path id="Vector_59" d="M264.4 159.18C264.474 158.664 264.615 158.159 264.82 157.68C264.82 157.68 265.05 158.63 266.77 158.5C268.49 158.37 271.23 158.67 272.14 160.63C272.2 160.76 272.25 160.89 272.3 161.02C272.409 160.666 272.476 160.3 272.5 159.93C272.685 160.55 272.685 161.21 272.5 161.83V161.83C272.5 161.83 272.5 161.89 272.5 161.93C272.818 162.32 273.056 162.768 273.2 163.25C273.065 162.985 272.837 162.778 272.56 162.67C272.56 164.2 271.95 165.67 270.86 166.14C269.27 166.79 269.28 166.3 267.68 167.36C267.68 167.36 267.25 166.82 267.54 166.47C267.83 166.12 268.94 165.59 268.32 165.07C267.7 164.55 267.48 165.13 267.25 164.78C267.02 164.43 268.16 163.38 266.7 162.4C265.24 161.42 264.27 160.06 264.4 159.18Z" fill="#333333"/>
</g>
<defs>
<linearGradient id="paint0_linear" x1="78.64" y1="178.93" x2="212.78" y2="178.93" gradientUnits="userSpaceOnUse">
<stop stop-color="#D23274"/>
<stop offset="1" stop-color="#F24A37"/>
</linearGradient>
<linearGradient id="paint1_linear" x1="24366.6" y1="3233.23" x2="24366.6" y2="3069.52" gradientUnits="userSpaceOnUse">
<stop stop-color="#D23274"/>
<stop offset="1" stop-color="#F24A37"/>
</linearGradient>
<linearGradient id="paint2_linear" x1="3.30983" y1="193.592" x2="95.9222" y2="186.954" gradientUnits="userSpaceOnUse">
<stop stop-color="#FF6224"/>
<stop offset="1" stop-color="#FF9750"/>
</linearGradient>
<linearGradient id="paint3_linear" x1="902.834" y1="2633.08" x2="2934.14" y2="2633.08" gradientUnits="userSpaceOnUse">
<stop stop-color="#D23274"/>
<stop offset="1" stop-color="#F24A37"/>
</linearGradient>
<linearGradient id="paint4_linear" x1="1576.46" y1="785.192" x2="2225.18" y2="785.192" gradientUnits="userSpaceOnUse">
<stop stop-color="#D23274"/>
<stop offset="1" stop-color="#F24A37"/>
</linearGradient>
<linearGradient id="paint5_linear" x1="-3450.67" y1="1251.93" x2="-3742.23" y2="1251.93" gradientUnits="userSpaceOnUse">
<stop stop-color="#D23274"/>
<stop offset="1" stop-color="#F24A37"/>
</linearGradient>
<linearGradient id="paint6_linear" x1="9731.75" y1="-778.058" x2="11118.3" y2="-3162.96" gradientUnits="userSpaceOnUse">
<stop stop-color="#FF6224"/>
<stop offset="1" stop-color="#FF9750"/>
</linearGradient>
<linearGradient id="paint7_linear" x1="1425.54" y1="-1286.67" x2="1455.55" y2="-1338.36" gradientUnits="userSpaceOnUse">
<stop stop-color="#FF6224"/>
<stop offset="1" stop-color="#FF9750"/>
</linearGradient>
<linearGradient id="paint8_linear" x1="7597.07" y1="2235.35" x2="7836.64" y2="1820.48" gradientUnits="userSpaceOnUse">
<stop stop-color="#FF6224"/>
<stop offset="1" stop-color="#FF9750"/>
</linearGradient>
<linearGradient id="paint9_linear" x1="3135.56" y1="1240.88" x2="3382.6" y2="1240.88" gradientUnits="userSpaceOnUse">
<stop stop-color="#D23274"/>
<stop offset="1" stop-color="#F24A37"/>
</linearGradient>
<linearGradient id="paint10_linear" x1="498.361" y1="3722.33" x2="648.317" y2="3722.33" gradientUnits="userSpaceOnUse">
<stop stop-color="#D23274"/>
<stop offset="1" stop-color="#F24A37"/>
</linearGradient>
<linearGradient id="paint11_linear" x1="37.16" y1="187.1" x2="48.91" y2="175.34" gradientUnits="userSpaceOnUse">
<stop stop-color="#D23274"/>
<stop offset="1" stop-color="#E94348"/>
</linearGradient>
<linearGradient id="paint12_linear" x1="4850.56" y1="4649.57" x2="5181.55" y2="4649.57" gradientUnits="userSpaceOnUse">
<stop stop-color="#D23274"/>
<stop offset="1" stop-color="#F24A37"/>
</linearGradient>
<linearGradient id="paint13_linear" x1="6369.45" y1="3469.4" x2="6995.94" y2="3469.4" gradientUnits="userSpaceOnUse">
<stop stop-color="#D23274"/>
<stop offset="1" stop-color="#F24A37"/>
</linearGradient>
</defs>
</svg>
