

<svg width="472" height="357" viewBox="0 0 472 357" fill="none" xmlns="http://www.w3.org/2000/svg">

  <style>
             .orbitt
   {  
      stroke-dasharray: 600;
      stroke-dashoffset: 600;
      stroke:white;
      fill: none;
      transform-origin: center;
      transform-box: fill;

      animation: orbittr 2s ease-in-out forwards infinite;
      
   }

   @keyframes orbittr{
      0% {  stroke-dashoffset: 600; opacity: 0.2; transform: scale(1); }                
      50% { stroke-dashoffset: 0; opacity: 01; transform: scale(1.15);}
      100% { stroke-dashoffset: 0; opacity: 0.1;  transform: scale(1);}




   }


   .glower
   {
        animation: gloww 2s ease-in-out infinite;
        stroke-width: 0px;
        stroke: none;
        transform-origin: center;
        transform-box: fill;
   }

     @keyframes gloww{
      0% {  fill-opacity: 0.2;  transform: scale(1); }
      50%{       fill-opacity: 1;    transform: scale(1.15);     }
      100% {  fill-opacity: 0.2; transform: scale(1);  }

   }


</style>

<g id="Mianlayer">
<g id="Orbit" class="orbitt">
<path id="Vector" d="M153 179C153 147.837 158.268 117.95 167.645 95.915C177.021 73.8794 189.739 61.5 203 61.5C216.261 61.5 228.979 73.8794 238.355 95.915C247.732 117.95 253 147.837 253 179C253 210.163 247.732 240.05 238.355 262.085C228.979 284.121 216.261 296.5 203 296.5C189.739 296.5 177.021 284.121 167.645 262.085C158.268 240.05 153 210.163 153 179Z" stroke="url(#paint0_linear)" stroke-width="7" stroke-miterlimit="10" stroke-dasharray="548 550"/>
<path id="Vector_2" d="M167.643 214.355C145.608 192.32 128.2 167.462 119.249 145.25C110.298 123.039 110.537 105.292 119.914 95.9157C129.291 86.5389 147.037 86.2997 169.249 95.2507C191.46 104.202 216.318 121.61 238.353 143.645C260.389 165.68 277.797 190.538 286.748 212.75C295.698 234.961 295.459 252.707 286.083 262.084C276.706 271.461 258.96 271.7 236.748 262.749C214.536 253.798 189.679 236.39 167.643 214.355Z" stroke="url(#paint1_linear)" stroke-width="7" stroke-miterlimit="10" stroke-dasharray="548 550"/>
<path id="Vector_3" d="M119.914 262.084C110.537 252.707 110.298 234.961 119.249 212.75C128.2 190.538 145.608 165.68 167.643 143.645C189.679 121.61 214.536 104.202 236.748 95.2507C258.96 86.2997 276.706 86.5389 286.083 95.9157C295.459 105.292 295.698 123.039 286.748 145.25C277.797 167.462 260.389 192.32 238.353 214.355C216.318 236.39 191.46 253.798 169.249 262.749C147.037 271.7 129.291 271.461 119.914 262.084" stroke="url(#paint2_linear)" stroke-width="7" stroke-miterlimit="10" stroke-dasharray="548 550"/>
<path id="Vector_4" d="M85.5 179C85.5 165.739 97.8794 153.021 119.915 143.645C141.95 134.268 171.837 129 203 129C234.163 129 264.05 134.268 286.085 143.645C308.121 153.021 320.5 165.739 320.5 179C320.5 192.261 308.121 204.979 286.085 214.355C264.05 223.732 234.163 229 203 229C171.837 229 141.95 223.732 119.915 214.355C97.8794 204.979 85.5 192.261 85.5 179" stroke="url(#paint3_linear)" stroke-width="7" stroke-miterlimit="10" stroke-dasharray="548 550"/>
</g>
<path id="db" class="glower" d="M203 149.6C190.6 149.6 177.2 152.7 177.2 159.4V198.5C177.2 205.3 190.6 208.4 203 208.4H203.3C206.9 208.4 210.6 208.1 214.2 207.5C223.5 206 228.9 202.7 228.9 198.5V159.4C228.9 152.7 215.4 149.6 203 149.6ZM221.8 198.5C221.4 199.1 218.7 200.8 212.8 201.7C209.5 202.2 206.2 202.5 203 202.4C191.2 202.4 185 199.6 184.2 198.4V192.4C189.5 194.3 196.3 195.2 203 195.2C209.7 195.2 216.6 194.3 221.8 192.4V198.5ZM184.2 166.5C189.5 168.4 196.3 169.3 203 169.3C209.7 169.3 216.6 168.4 221.8 166.5V172.4C220.9 173.6 214.8 176.4 203 176.4C191.2 176.4 185 173.6 184.2 172.4V166.5ZM184.2 185.4V179.5C189.5 181.4 196.3 182.3 203 182.3C209.7 182.3 216.6 181.4 221.8 179.5V185.4C220.9 186.6 214.7 189.4 203 189.4C191.3 189.4 185 186.5 184.2 185.4ZM203 155.6C214.5 155.6 220.8 158.3 221.7 159.5C220.8 160.7 214.5 163.4 203 163.4C191.5 163.4 185.2 160.7 184.3 159.5C185.2 158.2 191.5 155.6 203 155.6Z" fill="url(#paint4_linear)"/>
<g id="balls" class="glower">
<path id="Vector_5" d="M131.3 242.9C131.3 241.15 131.995 239.471 133.233 238.233C134.471 236.995 136.15 236.3 137.9 236.3C139.65 236.3 141.329 236.995 142.567 238.233C143.805 239.471 144.5 241.15 144.5 242.9C144.5 244.65 143.805 246.329 142.567 247.567C141.329 248.805 139.65 249.5 137.9 249.5C136.15 249.5 134.471 248.805 133.233 247.567C131.995 246.329 131.3 244.65 131.3 242.9" fill="url(#paint5_linear)"/>
<path id="Vector_6" d="M261.5 242.9C261.5 242.033 261.671 241.175 262.002 240.374C262.334 239.574 262.82 238.846 263.433 238.233C264.046 237.62 264.774 237.134 265.574 236.802C266.375 236.471 267.233 236.3 268.1 236.3C268.967 236.3 269.825 236.471 270.626 236.802C271.426 237.134 272.154 237.62 272.767 238.233C273.38 238.846 273.866 239.574 274.198 240.374C274.529 241.175 274.7 242.033 274.7 242.9C274.7 243.767 274.529 244.625 274.198 245.426C273.866 246.226 273.38 246.954 272.767 247.567C272.154 248.18 271.426 248.666 270.626 248.998C269.825 249.329 268.967 249.5 268.1 249.5C267.233 249.5 266.375 249.329 265.574 248.998C264.774 248.666 264.046 248.18 263.433 247.567C262.82 246.954 262.334 246.226 262.002 245.426C261.671 244.625 261.5 243.767 261.5 242.9" fill="url(#paint6_linear)"/>
<path id="Vector_7" d="M131.4 115.1C131.4 114.246 131.568 113.401 131.895 112.613C132.221 111.824 132.7 111.107 133.304 110.504C133.907 109.9 134.624 109.421 135.413 109.095C136.201 108.768 137.046 108.6 137.9 108.6C138.754 108.6 139.599 108.768 140.387 109.095C141.176 109.421 141.893 109.9 142.496 110.504C143.1 111.107 143.579 111.824 143.905 112.613C144.232 113.401 144.4 114.246 144.4 115.1C144.4 115.954 144.232 116.799 143.905 117.587C143.579 118.376 143.1 119.093 142.496 119.696C141.893 120.3 141.176 120.779 140.387 121.105C139.599 121.432 138.754 121.6 137.9 121.6C137.046 121.6 136.201 121.432 135.413 121.105C134.624 120.779 133.907 120.3 133.304 119.696C132.7 119.093 132.221 118.376 131.895 117.587C131.568 116.799 131.4 115.954 131.4 115.1Z" fill="url(#paint7_linear)"/>
<path id="Vector_8" d="M261.5 115.1C261.5 114.233 261.671 113.375 262.002 112.574C262.334 111.774 262.82 111.046 263.433 110.433C264.046 109.82 264.774 109.334 265.574 109.002C266.375 108.671 267.233 108.5 268.1 108.5C268.967 108.5 269.825 108.671 270.626 109.002C271.426 109.334 272.154 109.82 272.767 110.433C273.38 111.046 273.866 111.774 274.198 112.574C274.529 113.375 274.7 114.233 274.7 115.1C274.7 115.967 274.529 116.825 274.198 117.626C273.866 118.426 273.38 119.154 272.767 119.767C272.154 120.38 271.426 120.866 270.626 121.198C269.825 121.529 268.967 121.7 268.1 121.7C267.233 121.7 266.375 121.529 265.574 121.198C264.774 120.866 264.046 120.38 263.433 119.767C262.82 119.154 262.334 118.426 262.002 117.626C261.671 116.825 261.5 115.967 261.5 115.1" fill="url(#paint8_linear)"/>
</g>
<g id="texter">
<path d="M20.492 342.752C20.972 342.752 21.368 342.92 21.68 343.256C22.016 343.592 22.184 344 22.184 344.48V352.58C22.184 353.228 21.896 353.732 21.32 354.092C20.216 354.812 19.004 355.376 17.684 355.784C16.364 356.168 15.008 356.36 13.616 356.36C11.216 356.36 9.008 355.784 6.992 354.632C5 353.48 3.428 351.92 2.276 349.952C1.124 347.96 0.548004 345.776 0.548004 343.4C0.548004 341.024 1.124 338.852 2.276 336.884C3.428 334.892 5 333.32 6.992 332.168C9.008 331.016 11.216 330.44 13.616 330.44C14.816 330.44 15.968 330.572 17.072 330.836C18.2 331.1 19.208 331.496 20.096 332.024C20.384 332.192 20.6 332.396 20.744 332.636C20.888 332.876 20.96 333.14 20.96 333.428C20.96 333.908 20.792 334.328 20.456 334.688C20.144 335.024 19.76 335.192 19.304 335.192C18.944 335.192 18.632 335.108 18.368 334.94C16.808 334.22 15.224 333.86 13.616 333.86C11.888 333.86 10.304 334.28 8.864 335.12C7.448 335.96 6.32 337.112 5.48 338.576C4.664 340.04 4.256 341.648 4.256 343.4C4.256 345.152 4.664 346.76 5.48 348.224C6.32 349.664 7.448 350.816 8.864 351.68C10.304 352.52 11.888 352.94 13.616 352.94C14.432 352.94 15.284 352.844 16.172 352.652C17.084 352.46 17.864 352.208 18.512 351.896V346.172H14.156C13.676 346.172 13.268 346.016 12.932 345.704C12.596 345.368 12.428 344.96 12.428 344.48C12.428 343.976 12.596 343.568 12.932 343.256C13.268 342.92 13.676 342.752 14.156 342.752H20.492Z" fill="#333333"/>
<path d="M44.4433 346.568C44.4433 348.44 44.0233 350.12 43.1833 351.608C42.3433 353.096 41.1913 354.26 39.7273 355.1C38.2873 355.94 36.6913 356.36 34.9393 356.36C33.1873 356.36 31.5793 355.94 30.1153 355.1C28.6753 354.26 27.5353 353.096 26.6953 351.608C25.8553 350.12 25.4353 348.44 25.4353 346.568C25.4353 344.696 25.8553 343.004 26.6953 341.492C27.5353 339.98 28.6753 338.804 30.1153 337.964C31.5793 337.124 33.1873 336.704 34.9393 336.704C36.6913 336.704 38.2873 337.124 39.7273 337.964C41.1913 338.804 42.3433 339.98 43.1833 341.492C44.0233 343.004 44.4433 344.696 44.4433 346.568ZM41.0233 346.568C41.0233 345.272 40.7473 344.12 40.1953 343.112C39.6673 342.08 38.9353 341.288 37.9993 340.736C37.0873 340.16 36.0673 339.872 34.9393 339.872C33.8113 339.872 32.7793 340.16 31.8433 340.736C30.9313 341.288 30.1993 342.08 29.6473 343.112C29.1193 344.12 28.8553 345.272 28.8553 346.568C28.8553 347.84 29.1193 348.98 29.6473 349.988C30.1993 350.996 30.9313 351.788 31.8433 352.364C32.7793 352.916 33.8113 353.192 34.9393 353.192C36.0673 353.192 37.0873 352.916 37.9993 352.364C38.9353 351.788 39.6673 350.996 40.1953 349.988C40.7473 348.98 41.0233 347.84 41.0233 346.568Z" fill="#333333"/>
<path d="M76.7997 332.276C77.3757 332.588 77.6637 333.068 77.6637 333.716C77.6637 334.148 77.5197 334.544 77.2317 334.904C76.9437 335.288 76.5477 335.48 76.0437 335.48C75.7077 335.48 75.3837 335.396 75.0717 335.228C73.5837 334.388 71.9757 333.968 70.2477 333.968C68.4477 333.968 66.8517 334.364 65.4597 335.156C64.0917 335.948 63.0237 337.064 62.2557 338.504C61.4877 339.92 61.1037 341.552 61.1037 343.4C61.1037 345.392 61.4997 347.108 62.2917 348.548C63.0837 349.988 64.1757 351.092 65.5677 351.86C66.9597 352.604 68.5197 352.976 70.2477 352.976C72.0237 352.976 73.6317 352.544 75.0717 351.68C75.3597 351.536 75.6717 351.464 76.0077 351.464C76.5357 351.464 76.9557 351.668 77.2677 352.076C77.5557 352.436 77.6997 352.82 77.6997 353.228C77.6997 353.516 77.6157 353.792 77.4477 354.056C77.3037 354.296 77.0997 354.488 76.8357 354.632C75.8997 355.16 74.8437 355.58 73.6677 355.892C72.5157 356.204 71.3757 356.36 70.2477 356.36C67.9197 356.36 65.7717 355.844 63.8037 354.812C61.8597 353.78 60.2997 352.28 59.1237 350.312C57.9717 348.344 57.3957 346.04 57.3957 343.4C57.3957 340.976 57.9477 338.792 59.0517 336.848C60.1797 334.88 61.7157 333.344 63.6597 332.24C65.6277 331.112 67.8237 330.548 70.2477 330.548C72.5757 330.548 74.7597 331.124 76.7997 332.276Z" fill="#333333"/>
<path d="M99.2167 346.568C99.2167 348.44 98.7967 350.12 97.9567 351.608C97.1167 353.096 95.9647 354.26 94.5007 355.1C93.0607 355.94 91.4647 356.36 89.7127 356.36C87.9607 356.36 86.3527 355.94 84.8887 355.1C83.4487 354.26 82.3087 353.096 81.4687 351.608C80.6287 350.12 80.2087 348.44 80.2087 346.568C80.2087 344.696 80.6287 343.004 81.4687 341.492C82.3087 339.98 83.4487 338.804 84.8887 337.964C86.3527 337.124 87.9607 336.704 89.7127 336.704C91.4647 336.704 93.0607 337.124 94.5007 337.964C95.9647 338.804 97.1167 339.98 97.9567 341.492C98.7967 343.004 99.2167 344.696 99.2167 346.568ZM95.7967 346.568C95.7967 345.272 95.5207 344.12 94.9687 343.112C94.4407 342.08 93.7087 341.288 92.7727 340.736C91.8607 340.16 90.8407 339.872 89.7127 339.872C88.5847 339.872 87.5527 340.16 86.6167 340.736C85.7047 341.288 84.9727 342.08 84.4207 343.112C83.8927 344.12 83.6287 345.272 83.6287 346.568C83.6287 347.84 83.8927 348.98 84.4207 349.988C84.9727 350.996 85.7047 351.788 86.6167 352.364C87.5527 352.916 88.5847 353.192 89.7127 353.192C90.8407 353.192 91.8607 352.916 92.7727 352.364C93.7087 351.788 94.4407 350.996 94.9687 349.988C95.5207 348.98 95.7967 347.84 95.7967 346.568Z" fill="#333333"/>
<path d="M118.493 329.36C118.997 329.36 119.405 329.528 119.717 329.864C120.053 330.176 120.221 330.584 120.221 331.088V354.272C120.221 354.752 120.053 355.16 119.717 355.496C119.405 355.832 118.997 356 118.493 356C117.989 356 117.581 355.844 117.269 355.532C116.957 355.196 116.801 354.776 116.801 354.272V353.264C116.201 354.128 115.349 354.86 114.245 355.46C113.165 356.06 112.001 356.36 110.753 356.36C109.121 356.36 107.645 355.94 106.325 355.1C105.005 354.26 103.961 353.096 103.193 351.608C102.425 350.096 102.041 348.404 102.041 346.532C102.041 344.66 102.413 342.98 103.157 341.492C103.925 339.98 104.969 338.804 106.289 337.964C107.609 337.124 109.061 336.704 110.645 336.704C111.917 336.704 113.093 336.968 114.173 337.496C115.253 338.024 116.129 338.708 116.801 339.548V331.088C116.801 330.584 116.957 330.176 117.269 329.864C117.581 329.528 117.989 329.36 118.493 329.36ZM111.149 353.192C112.277 353.192 113.273 352.904 114.137 352.328C115.025 351.752 115.709 350.96 116.189 349.952C116.693 348.944 116.945 347.804 116.945 346.532C116.945 345.284 116.693 344.156 116.189 343.148C115.709 342.116 115.025 341.312 114.137 340.736C113.273 340.16 112.277 339.872 111.149 339.872C110.021 339.872 109.013 340.16 108.125 340.736C107.261 341.312 106.577 342.116 106.073 343.148C105.593 344.156 105.353 345.284 105.353 346.532C105.353 347.804 105.593 348.944 106.073 349.952C106.577 350.96 107.261 351.752 108.125 352.328C109.013 352.904 110.021 353.192 111.149 353.192Z" fill="#333333"/>
<path d="M141.866 345.848C141.842 346.28 141.662 346.652 141.326 346.964C140.99 347.252 140.594 347.396 140.138 347.396H127.466C127.634 349.148 128.294 350.552 129.446 351.608C130.622 352.664 132.05 353.192 133.73 353.192C134.882 353.192 135.818 353.024 136.538 352.688C137.258 352.352 137.894 351.92 138.446 351.392C138.806 351.176 139.154 351.068 139.49 351.068C139.898 351.068 140.234 351.212 140.498 351.5C140.786 351.788 140.93 352.124 140.93 352.508C140.93 353.012 140.69 353.468 140.21 353.876C139.514 354.572 138.59 355.16 137.438 355.64C136.286 356.12 135.11 356.36 133.91 356.36C131.966 356.36 130.25 355.952 128.762 355.136C127.298 354.32 126.158 353.18 125.342 351.716C124.55 350.252 124.154 348.596 124.154 346.748C124.154 344.732 124.562 342.968 125.378 341.456C126.218 339.92 127.31 338.744 128.654 337.928C130.022 337.112 131.486 336.704 133.046 336.704C134.582 336.704 136.022 337.1 137.366 337.892C138.71 338.684 139.79 339.776 140.606 341.168C141.422 342.56 141.842 344.12 141.866 345.848ZM133.046 339.872C131.702 339.872 130.538 340.256 129.554 341.024C128.57 341.768 127.922 342.932 127.61 344.516H138.23V344.228C138.11 342.956 137.534 341.912 136.502 341.096C135.494 340.28 134.342 339.872 133.046 339.872Z" fill="#333333"/>
<path d="M149.545 354.272C149.545 354.752 149.377 355.16 149.041 355.496C148.705 355.832 148.297 356 147.817 356C147.337 356 146.929 355.832 146.593 355.496C146.281 355.16 146.125 354.752 146.125 354.272V331.088C146.125 330.608 146.293 330.2 146.629 329.864C146.965 329.528 147.373 329.36 147.853 329.36C148.333 329.36 148.729 329.528 149.041 329.864C149.377 330.2 149.545 330.608 149.545 331.088V354.272Z" fill="#333333"/>
<path d="M171.151 345.848C171.127 346.28 170.947 346.652 170.611 346.964C170.275 347.252 169.879 347.396 169.423 347.396H156.751C156.919 349.148 157.579 350.552 158.731 351.608C159.907 352.664 161.335 353.192 163.015 353.192C164.167 353.192 165.103 353.024 165.823 352.688C166.543 352.352 167.179 351.92 167.731 351.392C168.091 351.176 168.439 351.068 168.775 351.068C169.183 351.068 169.519 351.212 169.783 351.5C170.071 351.788 170.215 352.124 170.215 352.508C170.215 353.012 169.975 353.468 169.495 353.876C168.799 354.572 167.875 355.16 166.723 355.64C165.571 356.12 164.395 356.36 163.195 356.36C161.251 356.36 159.535 355.952 158.047 355.136C156.583 354.32 155.443 353.18 154.627 351.716C153.835 350.252 153.439 348.596 153.439 346.748C153.439 344.732 153.847 342.968 154.663 341.456C155.503 339.92 156.595 338.744 157.939 337.928C159.307 337.112 160.771 336.704 162.331 336.704C163.867 336.704 165.307 337.1 166.651 337.892C167.995 338.684 169.075 339.776 169.891 341.168C170.707 342.56 171.127 344.12 171.151 345.848ZM162.331 339.872C160.987 339.872 159.823 340.256 158.839 341.024C157.855 341.768 157.207 342.932 156.895 344.516H167.515V344.228C167.395 342.956 166.819 341.912 165.787 341.096C164.779 340.28 163.627 339.872 162.331 339.872Z" fill="#333333"/>
<path d="M174.042 353.048C173.826 352.712 173.718 352.388 173.718 352.076C173.718 351.596 173.97 351.188 174.474 350.852C174.714 350.684 174.99 350.6 175.302 350.6C175.734 350.6 176.13 350.78 176.49 351.14C177.21 351.956 177.978 352.568 178.794 352.976C179.634 353.384 180.63 353.588 181.782 353.588C182.694 353.564 183.498 353.36 184.194 352.976C184.89 352.568 185.238 351.92 185.238 351.032C185.238 350.216 184.878 349.592 184.158 349.16C183.462 348.728 182.43 348.332 181.062 347.972C179.718 347.612 178.602 347.24 177.714 346.856C176.826 346.448 176.07 345.872 175.446 345.128C174.846 344.36 174.546 343.364 174.546 342.14C174.546 341.06 174.846 340.112 175.446 339.296C176.07 338.48 176.886 337.844 177.894 337.388C178.926 336.932 180.042 336.704 181.242 336.704C182.394 336.704 183.534 336.92 184.662 337.352C185.814 337.784 186.75 338.444 187.47 339.332C187.758 339.668 187.902 340.016 187.902 340.376C187.902 340.76 187.71 341.132 187.326 341.492C187.086 341.708 186.786 341.816 186.426 341.816C185.994 341.816 185.646 341.672 185.382 341.384C184.878 340.808 184.254 340.364 183.51 340.052C182.79 339.74 181.986 339.584 181.098 339.584C180.186 339.584 179.406 339.776 178.758 340.16C178.134 340.52 177.822 341.144 177.822 342.032C177.846 342.872 178.206 343.496 178.902 343.904C179.622 344.312 180.714 344.708 182.178 345.092C183.45 345.428 184.506 345.788 185.346 346.172C186.186 346.556 186.894 347.132 187.47 347.9C188.046 348.644 188.334 349.628 188.334 350.852C188.334 351.98 188.01 352.964 187.362 353.804C186.714 354.62 185.862 355.256 184.806 355.712C183.774 356.144 182.67 356.36 181.494 356.36C179.982 356.36 178.578 356.096 177.282 355.568C176.01 355.04 174.93 354.2 174.042 353.048Z" fill="#333333"/>
<path d="M191.199 353.048C190.983 352.712 190.875 352.388 190.875 352.076C190.875 351.596 191.127 351.188 191.631 350.852C191.871 350.684 192.147 350.6 192.459 350.6C192.891 350.6 193.287 350.78 193.647 351.14C194.367 351.956 195.135 352.568 195.951 352.976C196.791 353.384 197.787 353.588 198.939 353.588C199.851 353.564 200.655 353.36 201.351 352.976C202.047 352.568 202.395 351.92 202.395 351.032C202.395 350.216 202.035 349.592 201.315 349.16C200.619 348.728 199.587 348.332 198.219 347.972C196.875 347.612 195.759 347.24 194.871 346.856C193.983 346.448 193.227 345.872 192.603 345.128C192.003 344.36 191.703 343.364 191.703 342.14C191.703 341.06 192.003 340.112 192.603 339.296C193.227 338.48 194.043 337.844 195.051 337.388C196.083 336.932 197.199 336.704 198.399 336.704C199.551 336.704 200.691 336.92 201.819 337.352C202.971 337.784 203.907 338.444 204.627 339.332C204.915 339.668 205.059 340.016 205.059 340.376C205.059 340.76 204.867 341.132 204.483 341.492C204.243 341.708 203.943 341.816 203.583 341.816C203.151 341.816 202.803 341.672 202.539 341.384C202.035 340.808 201.411 340.364 200.667 340.052C199.947 339.74 199.143 339.584 198.255 339.584C197.343 339.584 196.563 339.776 195.915 340.16C195.291 340.52 194.979 341.144 194.979 342.032C195.003 342.872 195.363 343.496 196.059 343.904C196.779 344.312 197.871 344.708 199.335 345.092C200.607 345.428 201.663 345.788 202.503 346.172C203.343 346.556 204.051 347.132 204.627 347.9C205.203 348.644 205.491 349.628 205.491 350.852C205.491 351.98 205.167 352.964 204.519 353.804C203.871 354.62 203.019 355.256 201.963 355.712C200.931 356.144 199.827 356.36 198.651 356.36C197.139 356.36 195.735 356.096 194.439 355.568C193.167 355.04 192.087 354.2 191.199 353.048Z" fill="#333333"/>
<path d="M222.659 354.272C222.659 354.752 222.491 355.16 222.155 355.496C221.843 355.832 221.435 356 220.931 356C220.451 356 220.043 355.832 219.707 355.496C219.395 355.16 219.239 354.752 219.239 354.272V338.684C219.239 338.204 219.395 337.796 219.707 337.46C220.043 337.124 220.451 336.956 220.931 336.956C221.435 336.956 221.843 337.124 222.155 337.46C222.491 337.796 222.659 338.204 222.659 338.684V354.272ZM220.931 334.58C220.235 334.58 219.731 334.46 219.419 334.22C219.131 333.956 218.987 333.548 218.987 332.996V332.42C218.987 331.844 219.143 331.436 219.455 331.196C219.791 330.956 220.295 330.836 220.967 330.836C221.639 330.836 222.119 330.968 222.407 331.232C222.719 331.472 222.875 331.868 222.875 332.42V332.996C222.875 333.572 222.719 333.98 222.407 334.22C222.095 334.46 221.603 334.58 220.931 334.58Z" fill="#333333"/>
<path d="M237.188 336.704C241.508 336.704 243.668 339.296 243.668 344.48V354.272C243.668 354.752 243.5 355.16 243.164 355.496C242.852 355.832 242.444 356 241.94 356C241.46 356 241.052 355.832 240.716 355.496C240.404 355.16 240.248 354.752 240.248 354.272V344.516C240.248 343.1 239.924 341.972 239.276 341.132C238.628 340.292 237.572 339.872 236.108 339.872C235.148 339.872 234.272 340.088 233.48 340.52C232.712 340.928 232.1 341.492 231.644 342.212C231.212 342.908 230.996 343.676 230.996 344.516V354.272C230.996 354.752 230.828 355.16 230.492 355.496C230.18 355.832 229.772 356 229.268 356C228.764 356 228.356 355.844 228.044 355.532C227.732 355.196 227.576 354.776 227.576 354.272V338.864C227.576 338.384 227.732 337.976 228.044 337.64C228.38 337.304 228.788 337.136 229.268 337.136C229.772 337.136 230.18 337.304 230.492 337.64C230.828 337.976 230.996 338.384 230.996 338.864V340.124C231.62 339.164 232.484 338.36 233.588 337.712C234.716 337.04 235.916 336.704 237.188 336.704Z" fill="#333333"/>
<path d="M278.559 353.768C278.631 353.984 278.667 354.212 278.667 354.452C278.667 354.932 278.499 355.328 278.163 355.64C277.851 355.952 277.479 356.108 277.047 356.108C276.711 356.108 276.399 356.012 276.111 355.82C275.847 355.604 275.631 355.316 275.463 354.956L273.231 349.664H262.107L259.911 354.992C259.791 355.352 259.587 355.628 259.299 355.82C259.035 356.012 258.735 356.108 258.399 356.108C257.895 356.108 257.511 355.976 257.247 355.712C256.983 355.448 256.851 355.088 256.851 354.632C256.851 354.536 256.875 354.344 256.923 354.056L266.103 331.808C266.271 331.424 266.499 331.136 266.787 330.944C267.099 330.728 267.447 330.644 267.831 330.692C268.191 330.692 268.515 330.788 268.803 330.98C269.091 331.172 269.295 331.448 269.415 331.808L278.559 353.768ZM271.863 346.388L267.651 336.308L263.475 346.388H271.863Z" fill="#333333"/>
<path d="M295.545 337.136C296.049 337.136 296.457 337.304 296.769 337.64C297.105 337.976 297.273 338.384 297.273 338.864V348.44C297.273 350.936 296.577 352.88 295.185 354.272C293.817 355.64 291.873 356.324 289.353 356.324C286.857 356.324 284.925 355.64 283.557 354.272C282.189 352.88 281.505 350.936 281.505 348.44V338.864C281.505 338.384 281.661 337.976 281.973 337.64C282.309 337.304 282.717 337.136 283.197 337.136C283.701 337.136 284.109 337.304 284.421 337.64C284.757 337.976 284.925 338.384 284.925 338.864V348.44C284.925 351.584 286.401 353.156 289.353 353.156C290.817 353.156 291.933 352.76 292.701 351.968C293.469 351.176 293.853 350 293.853 348.44V338.864C293.853 338.384 294.009 337.976 294.321 337.64C294.657 337.304 295.065 337.136 295.545 337.136Z" fill="#333333"/>
<path d="M307.5 340.484V351.212C307.5 352.412 308.04 353.012 309.12 353.012C309.288 353.012 309.516 352.976 309.804 352.904C310.092 352.808 310.32 352.76 310.488 352.76C310.8 352.76 311.064 352.892 311.28 353.156C311.496 353.42 311.604 353.756 311.604 354.164C311.604 354.668 311.316 355.1 310.74 355.46C310.164 355.82 309.516 356 308.796 356C308.004 356 307.272 355.916 306.6 355.748C305.952 355.58 305.364 355.16 304.836 354.488C304.332 353.792 304.08 352.748 304.08 351.356V340.484H301.992C301.536 340.484 301.152 340.34 300.84 340.052C300.552 339.74 300.408 339.356 300.408 338.9C300.408 338.444 300.552 338.072 300.84 337.784C301.152 337.496 301.536 337.352 301.992 337.352H304.08V334.328C304.08 333.848 304.236 333.44 304.548 333.104C304.884 332.768 305.304 332.6 305.808 332.6C306.288 332.6 306.684 332.768 306.996 333.104C307.332 333.44 307.5 333.848 307.5 334.328V337.352H310.488C310.944 337.352 311.316 337.508 311.604 337.82C311.916 338.108 312.072 338.48 312.072 338.936C312.072 339.392 311.916 339.764 311.604 340.052C311.316 340.34 310.944 340.484 310.488 340.484H307.5Z" fill="#333333"/>
<path d="M333.744 346.568C333.744 348.44 333.324 350.12 332.484 351.608C331.644 353.096 330.492 354.26 329.028 355.1C327.588 355.94 325.992 356.36 324.24 356.36C322.488 356.36 320.88 355.94 319.416 355.1C317.976 354.26 316.836 353.096 315.996 351.608C315.156 350.12 314.736 348.44 314.736 346.568C314.736 344.696 315.156 343.004 315.996 341.492C316.836 339.98 317.976 338.804 319.416 337.964C320.88 337.124 322.488 336.704 324.24 336.704C325.992 336.704 327.588 337.124 329.028 337.964C330.492 338.804 331.644 339.98 332.484 341.492C333.324 343.004 333.744 344.696 333.744 346.568ZM330.324 346.568C330.324 345.272 330.048 344.12 329.496 343.112C328.968 342.08 328.236 341.288 327.3 340.736C326.388 340.16 325.368 339.872 324.24 339.872C323.112 339.872 322.08 340.16 321.144 340.736C320.232 341.288 319.5 342.08 318.948 343.112C318.42 344.12 318.156 345.272 318.156 346.568C318.156 347.84 318.42 348.98 318.948 349.988C319.5 350.996 320.232 351.788 321.144 352.364C322.08 352.916 323.112 353.192 324.24 353.192C325.368 353.192 326.388 352.916 327.3 352.364C328.236 351.788 328.968 350.996 329.496 349.988C330.048 348.98 330.324 347.84 330.324 346.568Z" fill="#333333"/>
<path d="M359.356 336.812C363.556 336.812 365.656 339.428 365.656 344.66V354.272C365.656 354.776 365.5 355.196 365.188 355.532C364.876 355.844 364.468 356 363.964 356C363.46 356 363.04 355.832 362.704 355.496C362.392 355.16 362.236 354.752 362.236 354.272V344.696C362.236 341.552 360.916 339.98 358.276 339.98C357.34 339.98 356.488 340.196 355.72 340.628C354.976 341.036 354.388 341.6 353.956 342.32C353.548 343.04 353.344 343.832 353.344 344.696V354.272C353.344 354.752 353.176 355.16 352.84 355.496C352.528 355.832 352.12 356 351.616 356C351.112 356 350.704 355.844 350.392 355.532C350.08 355.196 349.924 354.776 349.924 354.272V344.66C349.924 343.244 349.624 342.116 349.024 341.276C348.424 340.412 347.428 339.98 346.036 339.98C344.62 339.98 343.444 340.436 342.508 341.348C341.596 342.236 341.14 343.34 341.14 344.66V354.272C341.14 354.752 340.972 355.16 340.636 355.496C340.324 355.832 339.916 356 339.412 356C338.908 356 338.5 355.844 338.188 355.532C337.876 355.196 337.72 354.776 337.72 354.272V338.864C337.72 338.384 337.876 337.976 338.188 337.64C338.524 337.304 338.932 337.136 339.412 337.136C339.916 337.136 340.324 337.304 340.636 337.64C340.972 337.976 341.14 338.384 341.14 338.864V340.124C341.764 339.188 342.592 338.408 343.624 337.784C344.68 337.136 345.82 336.812 347.044 336.812C350.02 336.812 351.952 338.132 352.84 340.772C353.368 339.764 354.244 338.852 355.468 338.036C356.692 337.22 357.988 336.812 359.356 336.812Z" fill="#333333"/>
<path d="M386.067 336.884C386.571 336.884 386.979 337.052 387.291 337.388C387.627 337.7 387.795 338.12 387.795 338.648V354.272C387.795 354.752 387.627 355.16 387.291 355.496C386.979 355.832 386.571 356 386.067 356C385.563 356 385.155 355.844 384.843 355.532C384.531 355.196 384.375 354.776 384.375 354.272V353.336C383.751 354.176 382.899 354.896 381.819 355.496C380.739 356.072 379.575 356.36 378.327 356.36C376.695 356.36 375.207 355.94 373.863 355.1C372.543 354.26 371.499 353.096 370.731 351.608C369.987 350.096 369.615 348.404 369.615 346.532C369.615 344.66 369.987 342.98 370.731 341.492C371.499 339.98 372.543 338.804 373.863 337.964C375.183 337.124 376.635 336.704 378.219 336.704C379.491 336.704 380.667 336.968 381.747 337.496C382.851 338.024 383.727 338.696 384.375 339.512V338.648C384.375 338.144 384.531 337.724 384.843 337.388C385.155 337.052 385.563 336.884 386.067 336.884ZM378.723 353.192C379.851 353.192 380.847 352.904 381.711 352.328C382.599 351.752 383.283 350.96 383.763 349.952C384.267 348.944 384.519 347.804 384.519 346.532C384.519 345.284 384.267 344.156 383.763 343.148C383.283 342.14 382.599 341.348 381.711 340.772C380.847 340.172 379.851 339.872 378.723 339.872C377.595 339.872 376.587 340.16 375.699 340.736C374.835 341.312 374.151 342.104 373.647 343.112C373.167 344.12 372.927 345.26 372.927 346.532C372.927 347.804 373.167 348.944 373.647 349.952C374.151 350.96 374.835 351.752 375.699 352.328C376.587 352.904 377.595 353.192 378.723 353.192Z" fill="#333333"/>
<path d="M397.992 340.484V351.212C397.992 352.412 398.532 353.012 399.612 353.012C399.78 353.012 400.008 352.976 400.296 352.904C400.584 352.808 400.812 352.76 400.98 352.76C401.292 352.76 401.556 352.892 401.772 353.156C401.988 353.42 402.096 353.756 402.096 354.164C402.096 354.668 401.808 355.1 401.232 355.46C400.656 355.82 400.008 356 399.288 356C398.496 356 397.764 355.916 397.092 355.748C396.444 355.58 395.856 355.16 395.328 354.488C394.824 353.792 394.572 352.748 394.572 351.356V340.484H392.484C392.028 340.484 391.644 340.34 391.332 340.052C391.044 339.74 390.9 339.356 390.9 338.9C390.9 338.444 391.044 338.072 391.332 337.784C391.644 337.496 392.028 337.352 392.484 337.352H394.572V334.328C394.572 333.848 394.728 333.44 395.04 333.104C395.376 332.768 395.796 332.6 396.3 332.6C396.78 332.6 397.176 332.768 397.488 333.104C397.824 333.44 397.992 333.848 397.992 334.328V337.352H400.98C401.436 337.352 401.808 337.508 402.096 337.82C402.408 338.108 402.564 338.48 402.564 338.936C402.564 339.392 402.408 339.764 402.096 340.052C401.808 340.34 401.436 340.484 400.98 340.484H397.992Z" fill="#333333"/>
<path d="M409.796 354.272C409.796 354.752 409.628 355.16 409.292 355.496C408.98 355.832 408.572 356 408.068 356C407.588 356 407.18 355.832 406.844 355.496C406.532 355.16 406.376 354.752 406.376 354.272V338.684C406.376 338.204 406.532 337.796 406.844 337.46C407.18 337.124 407.588 336.956 408.068 336.956C408.572 336.956 408.98 337.124 409.292 337.46C409.628 337.796 409.796 338.204 409.796 338.684V354.272ZM408.068 334.58C407.372 334.58 406.868 334.46 406.556 334.22C406.268 333.956 406.124 333.548 406.124 332.996V332.42C406.124 331.844 406.28 331.436 406.592 331.196C406.928 330.956 407.432 330.836 408.104 330.836C408.776 330.836 409.256 330.968 409.544 331.232C409.856 331.472 410.012 331.868 410.012 332.42V332.996C410.012 333.572 409.856 333.98 409.544 334.22C409.232 334.46 408.74 334.58 408.068 334.58Z" fill="#333333"/>
<path d="M432.568 346.568C432.568 348.44 432.148 350.12 431.308 351.608C430.468 353.096 429.316 354.26 427.852 355.1C426.412 355.94 424.816 356.36 423.064 356.36C421.312 356.36 419.704 355.94 418.24 355.1C416.8 354.26 415.66 353.096 414.82 351.608C413.98 350.12 413.56 348.44 413.56 346.568C413.56 344.696 413.98 343.004 414.82 341.492C415.66 339.98 416.8 338.804 418.24 337.964C419.704 337.124 421.312 336.704 423.064 336.704C424.816 336.704 426.412 337.124 427.852 337.964C429.316 338.804 430.468 339.98 431.308 341.492C432.148 343.004 432.568 344.696 432.568 346.568ZM429.148 346.568C429.148 345.272 428.872 344.12 428.32 343.112C427.792 342.08 427.06 341.288 426.124 340.736C425.212 340.16 424.192 339.872 423.064 339.872C421.936 339.872 420.904 340.16 419.968 340.736C419.056 341.288 418.324 342.08 417.772 343.112C417.244 344.12 416.98 345.272 416.98 346.568C416.98 347.84 417.244 348.98 417.772 349.988C418.324 350.996 419.056 351.788 419.968 352.364C420.904 352.916 421.936 353.192 423.064 353.192C424.192 353.192 425.212 352.916 426.124 352.364C427.06 351.788 427.792 350.996 428.32 349.988C428.872 348.98 429.148 347.84 429.148 346.568Z" fill="#333333"/>
<path d="M446.156 336.704C450.476 336.704 452.636 339.296 452.636 344.48V354.272C452.636 354.752 452.468 355.16 452.132 355.496C451.82 355.832 451.412 356 450.908 356C450.428 356 450.02 355.832 449.684 355.496C449.372 355.16 449.216 354.752 449.216 354.272V344.516C449.216 343.1 448.892 341.972 448.244 341.132C447.596 340.292 446.54 339.872 445.076 339.872C444.116 339.872 443.24 340.088 442.448 340.52C441.68 340.928 441.068 341.492 440.612 342.212C440.18 342.908 439.964 343.676 439.964 344.516V354.272C439.964 354.752 439.796 355.16 439.46 355.496C439.148 355.832 438.74 356 438.236 356C437.732 356 437.324 355.844 437.012 355.532C436.7 355.196 436.544 354.776 436.544 354.272V338.864C436.544 338.384 436.7 337.976 437.012 337.64C437.348 337.304 437.756 337.136 438.236 337.136C438.74 337.136 439.148 337.304 439.46 337.64C439.796 337.976 439.964 338.384 439.964 338.864V340.124C440.588 339.164 441.452 338.36 442.556 337.712C443.684 337.04 444.884 336.704 446.156 336.704Z" fill="#333333"/>
<path d="M469.384 348.44C468.712 348.44 468.352 348.056 468.304 347.288L467.512 332.96C467.464 332.336 467.608 331.82 467.944 331.412C468.304 331.004 468.772 330.8 469.348 330.8C469.948 330.8 470.416 331.004 470.752 331.412C471.088 331.82 471.232 332.336 471.184 332.96L470.428 347.288C470.404 347.672 470.296 347.96 470.104 348.152C469.936 348.344 469.696 348.44 469.384 348.44ZM469.168 356C468.592 356 468.148 355.844 467.836 355.532C467.548 355.196 467.404 354.74 467.404 354.164V353.48C467.404 352.904 467.548 352.46 467.836 352.148C468.148 351.812 468.592 351.644 469.168 351.644H469.564C470.14 351.644 470.572 351.812 470.86 352.148C471.172 352.46 471.328 352.904 471.328 353.48V354.164C471.328 354.74 471.172 355.196 470.86 355.532C470.572 355.844 470.14 356 469.564 356H469.168Z" fill="#333333"/>
</g>
<path id="." d="M68.105 0.999C68.089 0.999 68.0767 0.994667 68.068 0.986C68.06 0.977333 68.056 0.964667 68.056 0.948V0.929C68.056 0.913 68.06 0.900667 68.068 0.892C68.0767 0.883333 68.089 0.879 68.105 0.879H68.115C68.1317 0.879 68.144 0.883333 68.152 0.892C68.1607 0.900667 68.165 0.913 68.165 0.929V0.948C68.165 0.982 68.1483 0.999 68.115 0.999H68.105Z" fill="black"/>
</g>
<defs>
<linearGradient id="paint0_linear" x1="149.5" y1="179" x2="256.5" y2="179" gradientUnits="userSpaceOnUse">
<stop stop-color="#D23274"/>
<stop offset="1" stop-color="#F24A37"/>
</linearGradient>
<linearGradient id="paint1_linear" x1="136.66" y1="245.339" x2="269.337" y2="112.661" gradientUnits="userSpaceOnUse">
<stop stop-color="#D23274"/>
<stop offset="1" stop-color="#F24A37"/>
</linearGradient>
<linearGradient id="paint2_linear" x1="136.66" y1="245.339" x2="269.337" y2="112.661" gradientUnits="userSpaceOnUse">
<stop stop-color="#D23274"/>
<stop offset="1" stop-color="#F24A37"/>
</linearGradient>
<linearGradient id="paint3_linear" x1="82" y1="179" x2="324" y2="179" gradientUnits="userSpaceOnUse">
<stop stop-color="#D23274"/>
<stop offset="1" stop-color="#F24A37"/>
</linearGradient>
<linearGradient id="paint4_linear" x1="177.15" y1="179" x2="228.85" y2="179" gradientUnits="userSpaceOnUse">
<stop stop-color="#D23274"/>
<stop offset="1" stop-color="#F24A37"/>
</linearGradient>
<linearGradient id="paint5_linear" x1="131.37" y1="242.9" x2="144.47" y2="242.9" gradientUnits="userSpaceOnUse">
<stop stop-color="#D23274"/>
<stop offset="1" stop-color="#F24A37"/>
</linearGradient>
<linearGradient id="paint6_linear" x1="261.53" y1="242.9" x2="274.63" y2="242.9" gradientUnits="userSpaceOnUse">
<stop stop-color="#D23274"/>
<stop offset="1" stop-color="#F24A37"/>
</linearGradient>
<linearGradient id="paint7_linear" x1="131.37" y1="115.1" x2="144.47" y2="115.1" gradientUnits="userSpaceOnUse">
<stop stop-color="#D23274"/>
<stop offset="1" stop-color="#F24A37"/>
</linearGradient>
<linearGradient id="paint8_linear" x1="261.53" y1="115.1" x2="274.63" y2="115.1" gradientUnits="userSpaceOnUse">
<stop stop-color="#D23274"/>
<stop offset="1" stop-color="#F24A37"/>
</linearGradient>
</defs>
</svg>
