
<svg width="661" height="317" viewBox="0 0 661 317" fill="none" xmlns="http://www.w3.org/2000/svg" >
<style>
             .orbitt
   {  
      stroke-dasharray: 300;
      stroke-dashoffset: 300;
      stroke:white;
      fill: none;

      animation: orbittr 2s ease-in-out forwards ;
      
   }

   @keyframes orbittr{
      0% {  stroke-dashoffset: 400; fill: none; fill-opacity: 0; }
      99%{          fill-opacity: 0.1;                     }
      100% { stroke-dashoffset: 0; fill: white; fill-opacity: 1;}
   }


   .glower
   {
        animation: gloww 2s ease-in-out infinite;
        stroke-width: 0px;
        stroke: none;
        transform-origin: center;
   }

     @keyframes gloww{
      0% {  fill-opacity: 0.6;  transform: translateY(0vh); }
      50%{       fill-opacity: 1;    transform:  translateY(2vh);      }
      100% {  fill-opacity: 0.6; transform:  translateY(0vh);  }

   }


</style> 
<g id="Layer 2">
<g id="Layer 1">
<g id="1_Art">
<g id="Logo" class="glower" filter="url(#filter0_dd)">
<path id="Vector_10" d="M310.5 28C321.14 28 331.99 39.21 340.33 58.76C349.46 80.23 354.5 108.9 354.5 139.5C354.5 170.1 349.5 198.77 340.33 220.24C331.99 239.79 321.14 251 310.5 251C299.86 251 288.99 239.79 280.66 220.24C271.53 198.77 266.5 170.1 266.5 139.5C266.5 108.9 271.5 80.23 280.66 58.76C288.99 39.21 299.85 28 310.5 28ZM310.5 22C282.88 22 260.5 74.61 260.5 139.5C260.5 204.39 282.88 257 310.5 257C338.12 257 360.5 204.39 360.5 139.5C360.5 74.61 338.11 22 310.5 22Z" fill="white" stroke="white" stroke-width="1.5" stroke-dasharray="400 400"/>
<path id="Vector_11" d="M247.85 49.18V55.18C259.27 55.18 274.44 60.1 290.55 69.03C307.72 78.55 325.38 92.16 341.61 108.39C363.24 130.02 379.96 153.85 388.68 175.49C396.62 195.2 396.86 210.82 389.34 218.34C385.7 221.98 380.26 223.82 373.15 223.82C361.72 223.82 346.56 218.9 330.45 209.97C313.27 200.45 295.61 186.84 279.38 170.61C257.75 149 240.99 125.15 232.31 103.51C224.37 83.8 224.13 68.18 231.65 60.66C235.29 57.02 240.73 55.18 247.84 55.18V49.18H247.85ZM247.84 49.18C239.35 49.18 232.32 51.51 227.41 56.41C207.88 75.94 229.25 129 275.14 174.86C309.49 209.21 347.84 229.86 373.14 229.86C381.63 229.86 388.66 227.53 393.57 222.63C413.1 203.1 391.73 150.07 345.84 104.18C311.49 69.83 273.14 49.18 247.84 49.18Z" fill="white" stroke="white" stroke-width="1.5" stroke-dasharray="400 400"/>
<path id="Vector_12" d="M373.15 49.18V55.18C380.26 55.18 385.7 57.02 389.34 60.66C396.86 68.18 396.62 83.8 388.68 103.51C379.96 125.15 363.24 148.98 341.61 170.61C325.38 186.84 307.72 200.45 290.55 209.97C274.43 218.9 259.27 223.82 247.84 223.82C240.73 223.82 235.29 221.98 231.65 218.34C224.13 210.82 224.37 195.2 232.31 175.49C241.03 153.85 257.75 130.02 279.38 108.39C295.61 92.16 313.27 78.55 330.44 69C346.56 60.07 361.72 55.15 373.15 55.15V49.15V49.18ZM373.15 49.15C347.84 49.15 309.49 69.76 275.15 104.15C229.25 150 207.88 203.06 227.41 222.59C232.32 227.49 239.34 229.82 247.84 229.82C273.15 229.82 311.5 209.21 345.84 174.82C391.74 129 413.11 75.94 393.58 56.41C388.67 51.51 381.65 49.18 373.15 49.18V49.15Z" fill="white" stroke="white" stroke-width="1.5" stroke-dasharray="400 400"/>
<path id="Vector_13" d="M310.5 95.5C341.09 95.5 369.76 100.5 391.23 109.67C410.78 118 421.99 128.86 421.99 139.5C421.99 150.14 410.78 161 391.23 169.33C369.76 178.47 341.09 183.5 310.5 183.5C279.91 183.5 251.23 178.5 229.76 169.33C210.21 161 198.99 150.14 198.99 139.5C198.99 128.86 210.21 118 229.76 109.67C251.23 100.53 279.9 95.5 310.5 95.5ZM310.5 89.5C245.6 89.5 193 111.89 193 139.5C193 167.11 245.6 189.5 310.5 189.5C375.4 189.5 427.99 167.11 427.99 139.5C427.99 111.89 375.38 89.5 310.49 89.5H310.5Z" fill="white" stroke="white" stroke-width="1.5" stroke-dasharray="400 400"/>
</g>
<g id="text" class="orbitt" >
<g id="Go Codeless in Automation !&#226;&#128;&#168;">
<path  d="M18.4513 316.72C14.9953 316.72 11.9233 316 9.23525 314.56C6.54725 313.12 4.45125 311.088 2.94725 308.464C1.44325 305.808 0.691254 302.736 0.691254 299.248C0.691254 295.76 1.44325 292.688 2.94725 290.032C4.45125 287.376 6.54725 285.328 9.23525 283.888C11.9233 282.448 14.9953 281.728 18.4513 281.728C23.0913 281.728 26.9473 282.88 30.0193 285.184V289.888C27.2353 287.456 23.5233 286.24 18.8833 286.24C16.3553 286.24 14.0833 286.768 12.0673 287.824C10.0513 288.88 8.46725 290.4 7.31525 292.384C6.19525 294.336 5.63525 296.624 5.63525 299.248C5.63525 301.872 6.19525 304.176 7.31525 306.16C8.43525 308.144 9.98725 309.664 11.9713 310.72C13.9553 311.776 16.1953 312.304 18.6913 312.304C21.6033 312.304 23.9873 311.712 25.8433 310.528V301.744H19.4593V297.76H30.7393V313.12C29.2353 314.368 27.4593 315.28 25.4113 315.856C23.3953 316.432 21.0753 316.72 18.4513 316.72Z" fill="white"/>
<path d="M48.1546 316.72C45.5626 316.72 43.2746 316.24 41.2906 315.28C39.3386 314.288 37.8026 312.88 36.6826 311.056C35.5946 309.2 35.0506 307.024 35.0506 304.528C35.0506 302.064 35.5946 299.904 36.6826 298.048C37.7706 296.192 39.3066 294.768 41.2906 293.776C43.2746 292.752 45.5626 292.24 48.1546 292.24C50.7466 292.24 53.0346 292.752 55.0186 293.776C57.0026 294.768 58.5386 296.192 59.6266 298.048C60.7466 299.904 61.3066 302.064 61.3066 304.528C61.3066 307.024 60.7466 309.2 59.6266 311.056C58.5386 312.88 57.0026 314.288 55.0186 315.28C53.0346 316.24 50.7466 316.72 48.1546 316.72ZM48.1546 312.88C50.6506 312.88 52.6346 312.112 54.1066 310.576C55.5786 309.04 56.3146 307.024 56.3146 304.528C56.3146 301.936 55.5786 299.888 54.1066 298.384C52.6346 296.88 50.6506 296.128 48.1546 296.128C45.6586 296.128 43.6746 296.88 42.2026 298.384C40.7306 299.888 39.9946 301.936 39.9946 304.528C39.9946 307.024 40.7306 309.04 42.2026 310.576C43.6746 312.112 45.6586 312.88 48.1546 312.88Z" fill="white"/>
<path d="M101.139 316.72C97.6827 316.72 94.6107 316 91.9227 314.56C89.2347 313.12 87.1388 311.088 85.6348 308.464C84.1308 305.808 83.3788 302.736 83.3788 299.248C83.3788 295.76 84.1308 292.688 85.6348 290.032C87.1388 287.376 89.2347 285.328 91.9227 283.888C94.6107 282.448 97.6827 281.728 101.139 281.728C105.747 281.728 109.603 282.896 112.707 285.232V289.936C109.923 287.472 106.211 286.24 101.571 286.24C98.9788 286.24 96.6748 286.768 94.6588 287.824C92.6748 288.88 91.1228 290.4 90.0028 292.384C88.8828 294.336 88.3228 296.624 88.3228 299.248C88.3228 301.872 88.8828 304.176 90.0028 306.16C91.1548 308.144 92.7228 309.664 94.7068 310.72C96.7228 311.776 99.0108 312.304 101.571 312.304C103.939 312.304 106.051 312 107.907 311.392C109.795 310.752 111.539 309.744 113.139 308.368V313.12C110.259 315.52 106.259 316.72 101.139 316.72Z" fill="white"/>
<path d="M129.342 316.72C126.75 316.72 124.462 316.24 122.478 315.28C120.526 314.288 118.99 312.88 117.87 311.056C116.782 309.2 116.238 307.024 116.238 304.528C116.238 302.064 116.782 299.904 117.87 298.048C118.958 296.192 120.494 294.768 122.478 293.776C124.462 292.752 126.75 292.24 129.342 292.24C131.934 292.24 134.222 292.752 136.206 293.776C138.19 294.768 139.726 296.192 140.814 298.048C141.934 299.904 142.494 302.064 142.494 304.528C142.494 307.024 141.934 309.2 140.814 311.056C139.726 312.88 138.19 314.288 136.206 315.28C134.222 316.24 131.934 316.72 129.342 316.72ZM129.342 312.88C131.838 312.88 133.822 312.112 135.294 310.576C136.766 309.04 137.502 307.024 137.502 304.528C137.502 301.936 136.766 299.888 135.294 298.384C133.822 296.88 131.838 296.128 129.342 296.128C126.846 296.128 124.862 296.88 123.39 298.384C121.918 299.888 121.182 301.936 121.182 304.528C121.182 307.024 121.918 309.04 123.39 310.576C124.862 312.112 126.846 312.88 129.342 312.88Z" fill="white"/>
<path d="M158.193 316.72C155.889 316.72 153.81 316.224 151.954 315.232C150.13 314.208 148.689 312.784 147.633 310.96C146.609 309.104 146.098 306.96 146.098 304.528C146.098 302.128 146.609 300 147.633 298.144C148.689 296.288 150.13 294.848 151.954 293.824C153.81 292.768 155.889 292.24 158.193 292.24C162.353 292.24 165.506 293.504 167.65 296.032V280.528H172.497V316H167.794V312.64C166.514 314.048 165.106 315.088 163.57 315.76C162.066 316.4 160.273 316.72 158.193 316.72ZM159.298 312.88C161.282 312.88 163.01 312.368 164.482 311.344C165.986 310.288 167.042 308.88 167.65 307.12V301.936C167.106 300.176 166.065 298.768 164.529 297.712C163.025 296.656 161.282 296.128 159.298 296.128C157.73 296.128 156.305 296.48 155.025 297.184C153.777 297.888 152.785 298.88 152.049 300.16C151.345 301.44 150.993 302.896 150.993 304.528C150.993 306.16 151.345 307.616 152.049 308.896C152.785 310.176 153.777 311.168 155.025 311.872C156.305 312.544 157.73 312.88 159.298 312.88Z" fill="white"/>
<path d="M191.417 316.72C187.161 316.72 183.817 315.664 181.385 313.552C178.985 311.408 177.785 308.4 177.785 304.528C177.785 300.752 178.857 297.76 181.001 295.552C183.177 293.344 186.265 292.24 190.265 292.24C192.921 292.24 195.177 292.752 197.033 293.776C198.889 294.768 200.281 296.16 201.209 297.952C202.169 299.712 202.649 301.728 202.649 304V306.4H182.393C182.553 308.576 183.465 310.208 185.129 311.296C186.825 312.352 189.113 312.88 191.993 312.88C193.465 312.88 194.953 312.752 196.457 312.496C197.961 312.208 199.289 311.84 200.441 311.392V315.28C199.417 315.696 198.057 316.032 196.361 316.288C194.697 316.576 193.049 316.72 191.417 316.72ZM198.089 302.992C198.025 300.816 197.305 299.136 195.929 297.952C194.585 296.736 192.665 296.128 190.169 296.128C187.737 296.128 185.849 296.752 184.505 298C183.161 299.248 182.457 300.912 182.393 302.992H198.089Z" fill="white"/>
<path d="M207.948 280.528H212.796V316H207.948V280.528Z" fill="white"/>
<path d="M231.729 316.72C227.473 316.72 224.13 315.664 221.698 313.552C219.298 311.408 218.098 308.4 218.098 304.528C218.098 300.752 219.17 297.76 221.314 295.552C223.49 293.344 226.578 292.24 230.578 292.24C233.234 292.24 235.489 292.752 237.345 293.776C239.201 294.768 240.594 296.16 241.522 297.952C242.482 299.712 242.961 301.728 242.961 304V306.4H222.706C222.866 308.576 223.777 310.208 225.441 311.296C227.137 312.352 229.426 312.88 232.306 312.88C233.778 312.88 235.266 312.752 236.77 312.496C238.274 312.208 239.602 311.84 240.754 311.392V315.28C239.73 315.696 238.369 316.032 236.673 316.288C235.009 316.576 233.361 316.72 231.729 316.72ZM238.401 302.992C238.337 300.816 237.617 299.136 236.241 297.952C234.897 296.736 232.978 296.128 230.482 296.128C228.05 296.128 226.162 296.752 224.818 298C223.474 299.248 222.77 300.912 222.706 302.992H238.401Z" fill="white"/>
<path d="M256.757 316.72C255.157 316.72 253.461 316.512 251.669 316.096C249.877 315.712 248.469 315.184 247.445 314.512V310.384C248.693 311.12 250.133 311.728 251.765 312.208C253.397 312.656 254.981 312.88 256.517 312.88C258.245 312.88 259.509 312.672 260.309 312.256C261.109 311.84 261.509 311.168 261.509 310.24C261.509 309.536 261.317 308.976 260.933 308.56C260.581 308.112 259.957 307.712 259.061 307.36C258.197 307.008 256.885 306.592 255.125 306.112C253.237 305.568 251.733 305.024 250.613 304.48C249.525 303.904 248.693 303.184 248.117 302.32C247.573 301.456 247.301 300.336 247.301 298.96C247.301 296.752 248.165 295.088 249.893 293.968C251.653 292.816 254.005 292.24 256.949 292.24C258.485 292.24 259.989 292.384 261.461 292.672C262.933 292.96 264.117 293.36 265.013 293.872V297.904C264.085 297.36 262.933 296.928 261.557 296.608C260.213 296.288 258.837 296.128 257.429 296.128C255.733 296.128 254.437 296.336 253.541 296.752C252.645 297.168 252.197 297.904 252.197 298.96C252.197 299.632 252.389 300.176 252.773 300.592C253.157 301.008 253.765 301.376 254.597 301.696C255.461 301.984 256.821 302.368 258.677 302.848C261.589 303.648 263.605 304.592 264.725 305.68C265.877 306.768 266.453 308.272 266.453 310.192C266.453 312.176 265.637 313.76 264.005 314.944C262.373 316.128 259.957 316.72 256.757 316.72Z" fill="white"/>
<path d="M279.022 316.72C277.422 316.72 275.726 316.512 273.934 316.096C272.142 315.712 270.734 315.184 269.71 314.512V310.384C270.958 311.12 272.398 311.728 274.03 312.208C275.662 312.656 277.246 312.88 278.782 312.88C280.51 312.88 281.774 312.672 282.574 312.256C283.374 311.84 283.774 311.168 283.774 310.24C283.774 309.536 283.582 308.976 283.198 308.56C282.846 308.112 282.222 307.712 281.326 307.36C280.462 307.008 279.15 306.592 277.39 306.112C275.502 305.568 273.998 305.024 272.878 304.48C271.79 303.904 270.958 303.184 270.382 302.32C269.838 301.456 269.566 300.336 269.566 298.96C269.566 296.752 270.43 295.088 272.158 293.968C273.918 292.816 276.27 292.24 279.214 292.24C280.75 292.24 282.254 292.384 283.726 292.672C285.198 292.96 286.382 293.36 287.278 293.872V297.904C286.35 297.36 285.198 296.928 283.822 296.608C282.478 296.288 281.102 296.128 279.694 296.128C277.998 296.128 276.702 296.336 275.806 296.752C274.91 297.168 274.462 297.904 274.462 298.96C274.462 299.632 274.654 300.176 275.038 300.592C275.422 301.008 276.03 301.376 276.862 301.696C277.726 301.984 279.086 302.368 280.942 302.848C283.854 303.648 285.87 304.592 286.99 305.68C288.142 306.768 288.718 308.272 288.718 310.192C288.718 312.176 287.902 313.76 286.27 314.944C284.638 316.128 282.222 316.72 279.022 316.72Z" fill="white"/>
<path d="M314.608 288.448C313.808 288.448 313.136 288.176 312.592 287.632C312.048 287.088 311.776 286.416 311.776 285.616C311.776 284.816 312.048 284.144 312.592 283.6C313.136 283.056 313.808 282.784 314.608 282.784C315.44 282.784 316.128 283.056 316.672 283.6C317.248 284.144 317.536 284.816 317.536 285.616C317.536 286.416 317.248 287.088 316.672 287.632C316.128 288.176 315.44 288.448 314.608 288.448ZM312.16 292.96H317.104V316H312.16V292.96Z" fill="white"/>
<path d="M323.776 292.96H328.48V296.272C329.568 294.896 330.896 293.888 332.464 293.248C334.064 292.576 335.728 292.24 337.456 292.24C340.528 292.24 342.816 293.056 344.32 294.688C345.824 296.32 346.576 298.512 346.576 301.264V316H341.728V301.744C341.728 298 339.936 296.128 336.352 296.128C334.816 296.128 333.376 296.496 332.032 297.232C330.72 297.936 329.584 299.024 328.624 300.496V316H323.776V292.96Z" fill="white"/>
<path d="M382.755 282.448H387.459L400.851 316H395.859L392.499 307.648H377.667L374.403 316H369.363L382.755 282.448ZM391.155 303.568L385.107 287.872L379.059 303.568H391.155Z" fill="white"/>
<path d="M413.616 316.72C410.512 316.72 408.16 315.888 406.56 314.224C404.992 312.56 404.208 310.336 404.208 307.552V292.96H409.056V307.36C409.056 311.04 410.896 312.88 414.576 312.88C417.808 312.88 420.336 311.424 422.16 308.512V292.96H427.008V316H422.304V312.736C421.216 314.112 419.92 315.12 418.416 315.76C416.944 316.4 415.344 316.72 413.616 316.72Z" fill="white"/>
<path d="M442.109 316.72C439.773 316.72 437.965 316.048 436.685 314.704C435.437 313.36 434.813 311.456 434.813 308.992V296.704H431.309V292.96H434.813V286.048H439.709V292.96H445.373V296.704H439.709V308.656C439.709 310.192 439.997 311.28 440.573 311.92C441.181 312.56 442.269 312.88 443.837 312.88C444.765 312.88 445.693 312.672 446.621 312.256V316.096C445.405 316.512 443.901 316.72 442.109 316.72Z" fill="white"/>
<path d="M463.092 316.72C460.5 316.72 458.212 316.24 456.228 315.28C454.276 314.288 452.74 312.88 451.62 311.056C450.532 309.2 449.988 307.024 449.988 304.528C449.988 302.064 450.532 299.904 451.62 298.048C452.708 296.192 454.244 294.768 456.228 293.776C458.212 292.752 460.5 292.24 463.092 292.24C465.684 292.24 467.972 292.752 469.956 293.776C471.94 294.768 473.476 296.192 474.564 298.048C475.684 299.904 476.244 302.064 476.244 304.528C476.244 307.024 475.684 309.2 474.564 311.056C473.476 312.88 471.94 314.288 469.956 315.28C467.972 316.24 465.684 316.72 463.092 316.72ZM463.092 312.88C465.588 312.88 467.572 312.112 469.044 310.576C470.516 309.04 471.252 307.024 471.252 304.528C471.252 301.936 470.516 299.888 469.044 298.384C467.572 296.88 465.588 296.128 463.092 296.128C460.596 296.128 458.612 296.88 457.14 298.384C455.668 299.888 454.932 301.936 454.932 304.528C454.932 307.024 455.668 309.04 457.14 310.576C458.612 312.112 460.596 312.88 463.092 312.88Z" fill="white"/>
<path d="M481.511 292.96H486.119V296.272C487.207 294.928 488.439 293.92 489.815 293.248C491.191 292.576 492.615 292.24 494.087 292.24C495.943 292.24 497.415 292.56 498.503 293.2C499.591 293.808 500.391 294.752 500.903 296.032C501.927 294.784 503.175 293.84 504.647 293.2C506.151 292.56 507.655 292.24 509.159 292.24C511.975 292.24 514.007 292.96 515.255 294.4C516.503 295.808 517.127 297.904 517.127 300.688V316H512.423V301.312C512.423 299.424 512.071 298.096 511.367 297.328C510.663 296.528 509.463 296.128 507.767 296.128C505.335 296.128 503.351 297.184 501.815 299.296C501.879 299.776 501.911 300.56 501.911 301.648V316H497.207V301.312C497.207 299.424 496.887 298.096 496.247 297.328C495.607 296.528 494.455 296.128 492.791 296.128C490.359 296.128 488.183 297.504 486.263 300.256V316H481.511V292.96Z" fill="white"/>
<path d="M530.689 316.72C527.905 316.72 525.665 316.016 523.969 314.608C522.305 313.168 521.473 311.232 521.473 308.8C521.473 306.24 522.273 304.272 523.873 302.896C525.505 301.488 527.809 300.784 530.785 300.784C533.953 300.784 536.641 301.424 538.849 302.704V301.504C538.849 299.68 538.289 298.336 537.169 297.472C536.081 296.576 534.353 296.128 531.985 296.128C530.577 296.128 529.201 296.272 527.857 296.56C526.545 296.816 525.361 297.184 524.305 297.664V293.728C525.265 293.28 526.513 292.928 528.049 292.672C529.585 292.384 531.073 292.24 532.513 292.24C536.321 292.24 539.137 293.088 540.961 294.784C542.817 296.448 543.745 298.768 543.745 301.744V316H539.185V313.408C538.193 314.496 537.009 315.328 535.633 315.904C534.289 316.448 532.641 316.72 530.689 316.72ZM531.889 313.024C533.425 313.024 534.817 312.72 536.065 312.112C537.313 311.504 538.241 310.656 538.849 309.568V306.448C536.769 305.104 534.449 304.432 531.889 304.432C530.033 304.432 528.641 304.8 527.713 305.536C526.817 306.24 526.369 307.328 526.369 308.8C526.369 311.616 528.209 313.024 531.889 313.024Z" fill="white"/>
<path d="M557.422 316.72C555.086 316.72 553.278 316.048 551.998 314.704C550.75 313.36 550.126 311.456 550.126 308.992V296.704H546.622V292.96H550.126V286.048H555.022V292.96H560.686V296.704H555.022V308.656C555.022 310.192 555.31 311.28 555.886 311.92C556.494 312.56 557.582 312.88 559.15 312.88C560.078 312.88 561.006 312.672 561.934 312.256V316.096C560.718 316.512 559.214 316.72 557.422 316.72Z" fill="white"/>
<path d="M569.327 288.448C568.527 288.448 567.855 288.176 567.311 287.632C566.767 287.088 566.495 286.416 566.495 285.616C566.495 284.816 566.767 284.144 567.311 283.6C567.855 283.056 568.527 282.784 569.327 282.784C570.159 282.784 570.847 283.056 571.391 283.6C571.967 284.144 572.255 284.816 572.255 285.616C572.255 286.416 571.967 287.088 571.391 287.632C570.847 288.176 570.159 288.448 569.327 288.448ZM566.879 292.96H571.823V316H566.879V292.96Z" fill="white"/>
<path d="M590.639 316.72C588.047 316.72 585.759 316.24 583.775 315.28C581.823 314.288 580.287 312.88 579.167 311.056C578.079 309.2 577.535 307.024 577.535 304.528C577.535 302.064 578.079 299.904 579.167 298.048C580.255 296.192 581.791 294.768 583.775 293.776C585.759 292.752 588.047 292.24 590.639 292.24C593.231 292.24 595.519 292.752 597.503 293.776C599.487 294.768 601.023 296.192 602.111 298.048C603.231 299.904 603.791 302.064 603.791 304.528C603.791 307.024 603.231 309.2 602.111 311.056C601.023 312.88 599.487 314.288 597.503 315.28C595.519 316.24 593.231 316.72 590.639 316.72ZM590.639 312.88C593.135 312.88 595.119 312.112 596.591 310.576C598.063 309.04 598.799 307.024 598.799 304.528C598.799 301.936 598.063 299.888 596.591 298.384C595.119 296.88 593.135 296.128 590.639 296.128C588.143 296.128 586.159 296.88 584.687 298.384C583.215 299.888 582.479 301.936 582.479 304.528C582.479 307.024 583.215 309.04 584.687 310.576C586.159 312.112 588.143 312.88 590.639 312.88Z" fill="white"/>
<path d="M609.058 292.96H613.762V296.272C614.85 294.896 616.178 293.888 617.746 293.248C619.346 292.576 621.01 292.24 622.738 292.24C625.81 292.24 628.098 293.056 629.602 294.688C631.106 296.32 631.858 298.512 631.858 301.264V316H627.01V301.744C627.01 298 625.218 296.128 621.634 296.128C620.098 296.128 618.658 296.496 617.314 297.232C616.002 297.936 614.866 299.024 613.906 300.496V316H609.058V292.96Z" fill="white"/>
<path d="M655.172 282.448H659.876V306.4H655.172V282.448ZM657.476 316.72C656.676 316.72 656.004 316.448 655.46 315.904C654.916 315.36 654.644 314.688 654.644 313.888C654.644 313.088 654.916 312.416 655.46 311.872C656.004 311.328 656.676 311.056 657.476 311.056C658.276 311.056 658.948 311.328 659.492 311.872C660.068 312.416 660.356 313.088 660.356 313.888C660.356 314.688 660.068 315.36 659.492 315.904C658.948 316.448 658.276 316.72 657.476 316.72Z" fill="white"/>
</g>
</g>
<g id="Balls" class="glower" >
<path id="Vector_15" d="M245.41 209.95C249.027 209.95 251.96 207.017 251.96 203.4C251.96 199.783 249.027 196.85 245.41 196.85C241.793 196.85 238.86 199.783 238.86 203.4C238.86 207.017 241.793 209.95 245.41 209.95Z" fill="white" stroke="white" stroke-width="1.5" stroke-dasharray="400 400"/>
<path id="Vector_16" d="M375.58 209.95C379.197 209.95 382.13 207.017 382.13 203.4C382.13 199.783 379.197 196.85 375.58 196.85C371.963 196.85 369.03 199.783 369.03 203.4C369.03 207.017 371.963 209.95 375.58 209.95Z" fill="white" stroke="white" stroke-width="1.5" stroke-dasharray="400 400"/>
<path id="Vector_17" d="M245.41 82.15C249.027 82.15 251.96 79.2175 251.96 75.6C251.96 71.9825 249.027 69.05 245.41 69.05C241.793 69.05 238.86 71.9825 238.86 75.6C238.86 79.2175 241.793 82.15 245.41 82.15Z" fill="white" stroke="white" stroke-width="1.5" stroke-dasharray="400 400"/>
<path id="Vector_18" d="M375.58 82.15C379.197 82.15 382.13 79.2175 382.13 75.6C382.13 71.9825 379.197 69.05 375.58 69.05C371.963 69.05 369.03 71.9825 369.03 75.6C369.03 79.2175 371.963 82.15 375.58 82.15Z" fill="white" stroke="white" stroke-width="1.5" stroke-dasharray="400 400"/>
</g>
<g id="DB" class="glower">
<path id="Vector_14" d="M310.5 110.09C298.09 110.09 284.65 113.17 284.65 119.94V159.05C284.65 165.82 298.06 168.91 310.45 168.91H310.77C314.407 168.904 318.038 168.617 321.63 168.05C330.96 166.53 336.35 163.24 336.35 159.05V119.94C336.35 113.17 322.9 110.09 310.5 110.09ZM329.34 159C328.91 159.64 326.27 161.25 320.34 162.22C317.079 162.731 313.781 162.979 310.48 162.96C298.72 162.96 292.48 160.17 291.65 158.96V152.96C296.92 154.88 303.76 155.78 310.5 155.78C317.24 155.78 324.09 154.88 329.34 152.96V159ZM291.65 127C296.92 128.91 303.76 129.82 310.5 129.82C317.24 129.82 324.09 128.91 329.34 127V132.89C328.46 134.06 322.34 136.89 310.5 136.89C298.66 136.89 292.5 134.09 291.65 132.89V127ZM291.65 145.9V140C296.92 141.92 303.76 142.83 310.5 142.83C317.24 142.83 324.09 141.92 329.34 140V145.9C328.46 147.06 322.28 149.9 310.5 149.9C298.72 149.9 292.53 147 291.65 145.87V145.9ZM310.52 116.09C322.04 116.09 328.35 118.76 329.23 119.97C328.35 121.18 322.04 123.85 310.52 123.85C299 123.85 292.71 121.18 291.83 119.97C292.7 118.73 298.99 116.06 310.52 116.06V116.09Z" fill="white" stroke="white" stroke-width="1.5" stroke-dasharray="400 400"/>
</g>
</g>
</g>
</g>
<defs>
<filter id="filter0_dd" x="167.25" y="0.25" width="286.49" height="286.5" filterUnits="userSpaceOnUse" color-interpolation-filters="sRGB">
<feFlood flood-opacity="0" result="BackgroundImageFix"/>
<feColorMatrix in="SourceAlpha" type="matrix" values="0 0 0 0 0 0 0 0 0 0 0 0 0 0 0 0 0 0 127 0"/>
<feOffset dy="4"/>
<feGaussianBlur stdDeviation="12.5"/>
<feColorMatrix type="matrix" values="0 0 0 0 1 0 0 0 0 1 0 0 0 0 1 0 0 0 0.3 0"/>
<feBlend mode="normal" in2="BackgroundImageFix" result="effect1_dropShadow"/>
<feColorMatrix in="SourceAlpha" type="matrix" values="0 0 0 0 0 0 0 0 0 0 0 0 0 0 0 0 0 0 127 0"/>
<feOffset dy="4"/>
<feGaussianBlur stdDeviation="4"/>
<feColorMatrix type="matrix" values="0 0 0 0 1 0 0 0 0 1 0 0 0 0 1 0 0 0 0.1 0"/>
<feBlend mode="normal" in2="effect1_dropShadow" result="effect2_dropShadow"/>
<feBlend mode="normal" in="SourceGraphic" in2="effect2_dropShadow" result="shape"/>
</filter>
</defs>
</svg>
