<svg xmlns="http://www.w3.org/2000/svg" xmlns:xlink="http://www.w3.org/1999/xlink" viewBox="0 0 471.23 470"><defs><style>.cls-1{isolation:isolate;}.cls-2{fill:url(#linear-gradient);}.cls-3{fill:#fff;}.cls-4{fill:#b70f5b;}.cls-5,.cls-7,.cls-9{fill:#ff6224;}.cls-10,.cls-6{fill:#ff9750;}.cls-7{opacity:0.18;}.cls-8{fill:#ffbc8f;}.cls-10,.cls-20,.cls-9{opacity:0.5;}.cls-11{fill:#ffb583;}.cls-12{fill:#e03c03;}.cls-13{fill:#ffc947;}.cls-14{fill:#f45721;}.cls-15{fill:#382424;}.cls-16{fill:#ffd0c5;}.cls-17{opacity:0.25;}.cls-17,.cls-18,.cls-19,.cls-20{mix-blend-mode:overlay;}.cls-18{opacity:0.15;}.cls-19{opacity:0.75;}.cls-21{fill:url(#linear-gradient-2);}.cls-22{fill:url(#linear-gradient-3);}.cls-23{fill:none;}</style><linearGradient id="linear-gradient" x1="12.39" y1="235.51" x2="450.86" y2="235.51" gradientUnits="userSpaceOnUse"><stop offset="0" stop-color="#d23274"/><stop offset="1" stop-color="#f24a37"/></linearGradient><linearGradient id="linear-gradient-2" x1="0" y1="235.56" x2="463.34" y2="235.56" xlink:href="#linear-gradient"/><linearGradient id="linear-gradient-3" x1="10225.8" y1="-10887.91" x2="10263.54" y2="-10887.91" gradientTransform="translate(-16997.76 -1432.61) rotate(51.67) scale(1.17)" xlink:href="#linear-gradient"/></defs><title>2_Art_Broken_3@web</title><g class="cls-1"><g id="Layer_2" data-name="Layer 2"><g id="Layer_1-2" data-name="Layer 1"><path class="cls-2" d="M450.86,235.51a219.49,219.49,0,0,1-1.68,27.17q-.82,6.74-2.06,13.34c-.13.65-.24,1.3-.38,1.94q-1,4.89-2.12,9.69a218.46,218.46,0,0,1-15.49,43.12s0,0,0,0A218.08,218.08,0,0,1,414,357.28c-.51.75-1,1.5-1.53,2.25s-1.11,1.6-1.68,2.4A217.59,217.59,0,0,1,394,382.83c-2.21,2.45-4.49,4.83-6.81,7.17q-6,6.06-12.52,11.66h0l-.12.11-2.36,2c-3.25,2.72-6.6,5.35-10,7.87l-.23.16a218.07,218.07,0,0,1-54.48,29.48q-2.4.87-4.81,1.69a216.93,216.93,0,0,1-25.84,7.1q-6.41,1.35-13,2.3a219.33,219.33,0,0,1-32.21,2.36q-8.44,0-16.75-.63c-2.22-.16-4.45-.37-6.66-.6q-10.51-1.11-20.71-3.21l-1-.2-1.14-.24-.82-.18-2.33-.52a217.81,217.81,0,0,1-43.35-14.93l-1.85-.87q-5.76-2.76-11.32-5.83c-.7-.39-1.39-.79-2.09-1.17A225.67,225.67,0,0,1,104,413.81l0,0q-7.35-5.28-14.25-11.14a219.6,219.6,0,0,1-18.28-17.42l-1.71-1.85q-4.17-4.56-8.08-9.35c-1.54-1.9-3.06-3.81-4.54-5.75h0c-1.48-2-3-4-4.4-6Q47.45,354.84,42.8,347c-.71-1.19-1.4-2.39-2.08-3.59h0c-1.09-1.92-2.14-3.84-3.18-5.8h0l-.91-1.75h0c-1.52-3-3-6-4.39-9S29.36,320.3,28,317c0,0,0,0,0,0-1.1-2.74-2.15-5.52-3.14-8.32h0A219.59,219.59,0,0,1,53.41,107.81q6.14-8.57,13-16.47c1.76-2,3.56-4,5.4-6Q76.76,80.18,82,75.3q3-2.82,6.15-5.54Q96,62.9,104.6,56.82a218.89,218.89,0,0,1,29.25-17.59q6.54-3.25,13.29-6.08l2-.79h0c.39-.16.8-.33,1.21-.48,1.73-.7,3.48-1.37,5.24-2s3.24-1.17,4.87-1.72c.63-.23,1.27-.44,1.89-.64,1.72-.58,3.44-1.14,5.18-1.66l2.69-.81c2-.57,3.93-1.11,5.91-1.63l1.21-.31A216.83,216.83,0,0,1,199,18.69a222.16,222.16,0,0,1,32.62-2.41A219.24,219.24,0,0,1,429.11,140.2q1.45,3,2.82,6.06c1,2.34,2.05,4.71,3,7.1l.38.92a0,0,0,0,0,0,0c.56,1.38,1.1,2.77,1.62,4.18,0,0,0,0,0,0a1.07,1.07,0,0,1,.07.19h0c.76,2,1.48,4,2.16,6.07q1.8,5.22,3.32,10.55s0,.06,0,.09q1.19,4.16,2.2,8.39a219,219,0,0,1,5.7,37.82C450.71,226.21,450.86,230.85,450.86,235.51Z"/><path class="cls-3" d="M110.05,131.43h133a2.06,2.06,0,0,1,2.06,2.06v4.21a0,0,0,0,1,0,0H108a0,0,0,0,1,0,0v-4.21a2.06,2.06,0,0,1,2.06-2.06Z"/><path class="cls-4" d="M106.77,136.47H243.91a0,0,0,0,1,0,0v69.29a3.83,3.83,0,0,1-3.83,3.83H110.6a3.83,3.83,0,0,1-3.83-3.83V136.47a0,0,0,0,1,0,0Z"/><path class="cls-5" d="M238.56,134.56a1,1,0,1,1-1.93,0,1,1,0,0,1,1.93,0Z"/><path class="cls-5" d="M231.93,134.56a1,1,0,1,1-1.93,0,1,1,0,0,1,1.93,0Z"/><path class="cls-5" d="M225.3,134.56a1,1,0,1,1-1-1A1,1,0,0,1,225.3,134.56Z"/><path class="cls-6" d="M191.26,147.58H115.1a1.33,1.33,0,0,1-1.32-1.33h0a1.32,1.32,0,0,1,1.32-1.32h76.16a1.32,1.32,0,0,1,1.32,1.32h0A1.33,1.33,0,0,1,191.26,147.58Z"/><path class="cls-6" d="M191.26,156H115.1a1.32,1.32,0,0,1-1.32-1.32h0a1.32,1.32,0,0,1,1.32-1.33h76.16a1.32,1.32,0,0,1,1.32,1.33h0A1.32,1.32,0,0,1,191.26,156Z"/><path class="cls-6" d="M154.93,164.45H115.1a1.33,1.33,0,0,1-1.32-1.33h0a1.32,1.32,0,0,1,1.32-1.32h39.83a1.32,1.32,0,0,1,1.32,1.32h0A1.33,1.33,0,0,1,154.93,164.45Z"/><path class="cls-5" d="M191.26,181.32H115.1a1.33,1.33,0,0,1-1.32-1.33h0a1.32,1.32,0,0,1,1.32-1.32h76.16a1.32,1.32,0,0,1,1.32,1.32h0A1.33,1.33,0,0,1,191.26,181.32Z"/><path class="cls-5" d="M154.93,189.75H115.1a1.32,1.32,0,0,1-1.32-1.32h0a1.32,1.32,0,0,1,1.32-1.33h39.83a1.32,1.32,0,0,1,1.32,1.33h0A1.32,1.32,0,0,1,154.93,189.75Z"/><path class="cls-6" d="M154.93,198.19H115.1a1.33,1.33,0,0,1-1.32-1.33h0a1.32,1.32,0,0,1,1.32-1.32h39.83a1.32,1.32,0,0,1,1.32,1.32h0A1.33,1.33,0,0,1,154.93,198.19Z"/><path class="cls-5" d="M191.26,164.45H162.64a1.33,1.33,0,0,1-1.32-1.33h0a1.32,1.32,0,0,1,1.32-1.32h28.62a1.32,1.32,0,0,1,1.32,1.32h0A1.33,1.33,0,0,1,191.26,164.45Z"/><path class="cls-7" d="M236.53,180.67a18.29,18.29,0,1,1-18.28-18.29A18.28,18.28,0,0,1,236.53,180.67Z"/><path class="cls-8" d="M209.23,176.05a15.48,15.48,0,0,1,.59-4.39,9.69,9.69,0,0,1,1.84-3.55,8.9,8.9,0,0,1,3.15-2.41,10.63,10.63,0,0,1,4.52-.88c1.5,0,2.47-.36,2.92-1.07a5.93,5.93,0,0,0,.66-3.1,6.44,6.44,0,0,0-.13-1.23,5.42,5.42,0,0,0-.45-1.34,3.12,3.12,0,0,0-.91-1.07,2.53,2.53,0,0,0-1.5-.42H204.47a.48.48,0,0,1-.54-.54v-5.88a.47.47,0,0,1,.54-.53h17.16a7.62,7.62,0,0,1,4,1,9.14,9.14,0,0,1,2.81,2.62,11.31,11.31,0,0,1,1.66,3.64,16.17,16.17,0,0,1,.53,4.06,13.23,13.23,0,0,1-2.22,8.07q-2.22,3-7.24,3a8.08,8.08,0,0,0-2.17.24,2.46,2.46,0,0,0-1.25.75,2.85,2.85,0,0,0-.59,1.25,8.35,8.35,0,0,0-.16,1.77v2.67a.48.48,0,0,1-.54.54h-6.68a.47.47,0,0,1-.53-.54Z"/><path class="cls-8" d="M209.76,182.48h6.68a.54.54,0,0,1,.54.54v6.2a.53.53,0,0,1-.53.53h-6.68a.53.53,0,0,1-.53-.53V183A.53.53,0,0,1,209.76,182.48Z"/><polygon class="cls-4" points="108 203.41 108 227.54 130.17 205.37 108 203.41"/><path class="cls-9" d="M410.1,162.55H329.92a2.64,2.64,0,0,1-2.64-2.64h0a2.65,2.65,0,0,1,2.64-2.65H410.1a2.65,2.65,0,0,1,2.65,2.65h0A2.65,2.65,0,0,1,410.1,162.55Z"/><path class="cls-10" d="M381.47,174.06H329.92a2.65,2.65,0,0,1-2.64-2.65h0a2.65,2.65,0,0,1,2.64-2.65h51.55a2.65,2.65,0,0,1,2.65,2.65h0A2.65,2.65,0,0,1,381.47,174.06Z"/><path class="cls-10" d="M381.47,186.41H329.92a2.65,2.65,0,0,1-2.64-2.65h0a2.65,2.65,0,0,1,2.64-2.65h51.55a2.65,2.65,0,0,1,2.65,2.65h0A2.65,2.65,0,0,1,381.47,186.41Z"/><path class="cls-10" d="M94.15,178.58H46.48a3,3,0,0,1-3-3h0a3,3,0,0,1,3-3H94.15a3,3,0,0,1,3,3h0A3,3,0,0,1,94.15,178.58Z"/><path class="cls-9" d="M76.15,191.75H46.48a3,3,0,0,1-3-3h0a3,3,0,0,1,3-3H76.15a3,3,0,0,1,3,3h0A3,3,0,0,1,76.15,191.75Z"/><path class="cls-9" d="M76.15,205.89H46.48a3,3,0,0,1-3-3h0a3,3,0,0,1,3-3H76.15a3,3,0,0,1,3,3h0A3,3,0,0,1,76.15,205.89Z"/><polygon class="cls-5" points="47.67 238.4 135.49 238.4 167.25 299.52 79.43 299.52 47.67 238.4"/><path class="cls-11" d="M81.2,295,54.91,244.39a1.6,1.6,0,0,1,1.41-2.33h76a1.6,1.6,0,0,1,1.41.86L160,293.53a1.6,1.6,0,0,1-1.42,2.33h-76A1.6,1.6,0,0,1,81.2,295Z"/><rect class="cls-6" x="79.43" y="299.52" width="71.13" height="8.16"/><path class="cls-4" d="M211.66,299.52H141.47a4.08,4.08,0,0,0-4.08,4.08h0a4.08,4.08,0,0,0,4.08,4.08h70.19a4.08,4.08,0,0,0,4.08-4.08h0A4.08,4.08,0,0,0,211.66,299.52Z"/><path class="cls-6" d="M79.43,299.52,47.67,238.4l-1.59,1.2a2.61,2.61,0,0,0-.75,3.31l34.1,64.77Z"/><rect class="cls-6" x="103.57" y="303.33" width="7.83" height="1.36"/><rect class="cls-6" x="113.41" y="303.33" width="7.83" height="1.36"/><rect class="cls-6" x="123.26" y="303.33" width="7.83" height="1.36"/><path class="cls-12" d="M307.44,441.28q-2.4.87-4.81,1.69l-1.11-1.38-7.88-9.79-11.37-14.16-1.41-1.75L268.7,400.77l-.87-1.07-5.72-7.12-14.06-17.47,0-.05-3.09-3.83-19.44-24.18L208,325.31l-3.75-4.66a2.4,2.4,0,0,1,3.74-3l6.16,7.67,16.23,20.16L248,367.39l3.08,3.84,1.32,1.64,12.35,15.34,5.2,6.47,4.52,5.63L285,413.41l3.4,4.23,9,11.14,7.87,9.79Z"/><path class="cls-5" d="M291.78,320.65,288,325.31l-2.25,2.81-3.39,4.21h0L266,352.73l-.86,1.07-14,17.43L248,375.06l-.1.12-18.13,22.54L228,400l-3.11,3.86-11.1,13.8L202.39,431.8l-2.73,3.38L196.58,439l-2.07,2.57-1.7,2.12-5.3,6.58-1-.2-1.14-.24-.82-.18-2.33-.52,1.81-2.26,1.88-2.34,4.81-6,2.73-3.39,3.09-3.84,2.06-2.56,9-11.14L221,401l1.11-1.37,1.18-1.47L237.91,380l7-8.73,3.08-3.84,12.05-15,.71-.89,20.17-25.09.92-1.13,2.57-3.2,3.59-4.47a2.41,2.41,0,0,1,3.76,3Z"/><path class="cls-5" d="M202.39,438.57l12.49,15.53c-2.22-.16-4.45-.37-6.66-.6l-9.58-11.91-1.3-1.61-.76-1-3.09-3.84-2.73-3.38L183.67,423l-5-6.16-8-9.95L148.1,378.75l-43-53.44-3.75-4.66a2.4,2.4,0,0,1,3.75-3l6.17,7.67,41,51,22.63,28.14,2.25,2.79,7.47,9.3.05,0,.85,1.05,8.95,11.14,2.07,2.56,3.08,3.84,1.41,1.76Z"/><path class="cls-6" d="M136.32,325.31H49.61a6.16,6.16,0,0,1-6.16-6.16h0A6.16,6.16,0,0,1,49.61,313h86.71a6.16,6.16,0,0,1,6.16,6.16h0A6.16,6.16,0,0,1,136.32,325.31Z"/><path class="cls-5" d="M385.82,325.31H138a6.16,6.16,0,0,1-6.16-6.16h0A6.16,6.16,0,0,1,138,313H385.82Z"/><path class="cls-12" d="M203.31,435.18a6.73,6.73,0,1,1-6.73-6.73A6.73,6.73,0,0,1,203.31,435.18Z"/><path class="cls-13" d="M306.18,435.18a6.73,6.73,0,1,1-6.73-6.73A6.73,6.73,0,0,1,306.18,435.18Z"/><path class="cls-14" d="M234.16,410.59s-3.5,2.73-9,7.05c-5.7,4.52-13.56,10.75-21.86,17.49l-2.24,1.81-3.73,3-2.17,1.79c-.78.63-1.58,1.28-2.36,1.94-2.15,1.77-4.29,3.54-6.37,5.29l-1,.85-.82-.18-2.33-.52a217.81,217.81,0,0,1-43.35-14.93c4.51-6.79,8.09-11.75,9.81-13.34,3-2.79,12.07-8.31,22-14l4.23-2.41c14.33-8.11,28.93-15.85,28.93-15.85l4.86,3.53,8.86,6.44,1.22.87L221,401l3.91,2.83,6.2,4.51Z"/><path class="cls-15" d="M300.63,192.81c-.67,1.54-1.44,3.14-2.31,4.78-4.66,8.91-1.21,17.84-6.54,20.11a5.85,5.85,0,0,1-1.07.34c-6.86,1.52-22.67-7.61-23.36-12.18s4.88-12.39,0-13.34-7.5,7.25-7.5,7.25c-4,.41-5.43-6.3-12-6.3a11.29,11.29,0,0,0-2.73.35,19.54,19.54,0,0,0-7.53,4.15,18.83,18.83,0,0,0-2,1.93,13.06,13.06,0,0,1-5.58-11c.46-11.56,4.73-20,15-21.71,1.14-12.85,11.72-19.71,25.86-20.15,12.39-.38,14.25,10.76,14.54,13.53-.11-2.06-.69-8.86-3.64-13.53,6.2-.27,11.67,4.16,10.24,18.58,1.43-4.29,6.43-7,10.28-3.86-3.56,0-7,6-7,6a24.17,24.17,0,0,1,7,7.63C304.69,179.47,303.79,185.52,300.63,192.81Z"/><path class="cls-16" d="M291.78,217.7l-.16,2.12-.54,7.5s-11.42,9.77-17.89,0a1.25,1.25,0,0,0-.15-.19c-2-3-3.81-4-5.46-4.22-3.58-.43-6.46,3.07-9.44-.72-8.53-10.82-11.93-23.35-13-28.37a11.29,11.29,0,0,1,2.73-.35c6.57,0,8,6.71,12,6.3,0,0,2.63-8.19,7.5-7.25s-.69,8.77,0,13.34c.31,2,3.63,5,7.83,7.48,4.89,2.94,11,5.26,14.84,4.81.24,0,.47-.06.69-.11A5.85,5.85,0,0,0,291.78,217.7Z"/><path class="cls-17" d="M293.56,231.67c-5.14,3.51-14.57,4.08-14.57,4.08l-7.71-1.13s-3.22-4.68-1.71-7.3a8.94,8.94,0,0,1,2-2,54.79,54.79,0,0,1,8.85-5.67c3.56-1.85,7.23-3.31,9.87-3.47C296.8,215.77,298.71,228.14,293.56,231.67Z"/><path class="cls-4" d="M292,356.7c-11.48,2.21-35.76-4.55-47.38-9.78-3.44-1.54-5.78-2.95-6.34-3.94-2.22-3.93,0-6.94,5.55-19.41q.93-2.11,2-4.59c3.75-8.83,3.76-27.67,3.75-43.9-.05-13.9-.11-25.89,2.1-28,4.79-4.62,28.71-19.74,28.71-19.74l4.76,24.82s2.69,12.6,5.53,29C295.94,311.46,301.67,354.84,292,356.7Z"/><path class="cls-5" d="M300,367.75c0,1.14-11.43,27.79-21,31.61a18.79,18.79,0,0,1-4.54.95c-1.66.21-3.61.36-5.78.46l-1.58.05c-11.16.42-27.18-.22-39.14-.84l-5.91-.34-3.26-.2c-4.4-.27-7.14-.47-7.14-.47l-27,17.62-1.61,1.05.57,5.33L186,444.55l.49,4.45.11,1.09-1.14-.24-.82-.18-2.33-.52a217.81,217.81,0,0,1-43.35-14.93l-1.85-.87c-4-20.65-5.41-38.78-.43-45.42,2.18-2.89,6.21-6,11.47-9.18,1.33-.82,2.74-1.62,4.21-2.44,20.71-11.37,54.75-23.21,73.18-29.26l4.9-1.58c5-1.58,7.94-2.49,7.94-2.49a47.91,47.91,0,0,0,7.85,3.95c.61.25,1.22.49,1.84.72s1.45.54,2.2.8c.41.15.83.28,1.26.43l.87.28c.94.3,1.88.6,2.84.88,1.22.35,2.45.69,3.69,1q.93.26,1.89.48c1.74.44,3.48.84,5.2,1.2l1.56.33c.52.11,1,.22,1.54.31s1.09.22,1.62.32c.84.15,1.65.31,2.46.44l1,.18c.64.12,1.27.22,1.87.32l1.81.29.76.11c.25,0,.5.09.75.12l1.47.22c.48.06.94.12,1.4.2l1.31.17c.57.09,1.1.15,1.61.21l1.95.24h0c.86.11,1.64.19,2.28.25.45.06.86.1,1.2.13l.33,0,.51,0,.25,0H292S300,366.59,300,367.75Z"/><path class="cls-16" d="M244.69,308.08c-3.59,5-10,12.63-15.31,11.86l-.66-.11c-10.1-1.78-69.49-16.67-72.29-17.23s-22.85-.75-21.71-2.85,12.57-8.76,15.61-8.6,15.06,3.64,27,3.26,43.42,0,43.42,0l1.53-2.63,2.24-3.88C223.94,299.54,238,309,244.69,308.08Z"/><path class="cls-18" d="M300,367.75c0,1.14-11.43,27.79-21,31.61a18.79,18.79,0,0,1-4.54.95c-1.66.21-3.61.36-5.78.46l-1.58.05c-11.16.42-27.18-.22-39.14-.84l-5.91-.34-3.26-.2c-4.4-.27-7.14-.47-7.14-.47l-27,17.62-1.61,1.05.57,5.33L186,444.55l.49,4.45.11,1.09-1.14-.24-.82-.18c-.17-.91-.34-1.84-.52-2.78-1.91-10.45-4-21.86-5.36-30.08-.72-4.2-1.26-7.58-1.52-9.57a16.53,16.53,0,0,1-.18-1.79c0-1.5,14-6.38,31.72-13.32,9.17-3.57,19.36-7.69,29.18-12.17,3.4-1.56,6.76-3.15,10-4.78l.13-.07q2.22-1.11,4.36-2.24c10-5.31,18.73-10.94,24.24-16.66.42-.42.81-.86,1.19-1.29l.76.11c.25,0,.5.09.75.12l1.47.22,1.4.2,1.31.17c.57.09,1.1.15,1.61.21l1.95.24h0c.86.11,1.64.19,2.28.25.45.06.86.09,1.2.13l.33,0,.51,0,.25,0H292S300,366.59,300,367.75Z"/><path class="cls-19" d="M262.42,299.55c-5,7-12.94,15.94-18.55,24q.93-2.11,2-4.59c3.75-8.83,3.76-27.67,3.75-43.9l17.1-11.32S270.42,288.22,262.42,299.55Z"/><path class="cls-4" d="M247.81,305.92c-.73.67-1.49,1.34-2.24,2a3.43,3.43,0,0,1-.88.19c-6.72.95-20.75-8.54-20.12-20.18a17,17,0,0,1,1.86-4.86c5.74-11.57,23-37.33,26.18-36.14,0,0,11.09,1.71,14.1,16.86C269.53,278,259.35,295.23,247.81,305.92Z"/><path class="cls-20" d="M287.1,356.19c-2.43-.29-5.62-.71-9.26-1.27-9.46-1.47-21.88-4-31.66-8,8.62-.3,27.07-6,29.3-48.22a206.49,206.49,0,0,0,4.65,24.48A332.91,332.91,0,0,1,287.1,356.19Z"/><path class="cls-17" d="M282.55,216.86a28.62,28.62,0,0,0-2.1,2.74,54.79,54.79,0,0,0-8.85,5.67,6.42,6.42,0,0,0-4-2.36l7.6-9.57A41.45,41.45,0,0,0,282.55,216.86Z"/><path class="cls-17" d="M244.69,308.08c-3.59,5-10,12.63-15.31,11.86l-.66-.11c-6.54-9.46-6.78-21.85-6.39-28.05l2.24-3.88C223.94,299.54,238,309,244.69,308.08Z"/><path class="cls-17" d="M300.63,192.81c-.67,1.54-1.44,3.14-2.31,4.78-2.29,4.37-2.61,8.73-3,12.34a23.73,23.73,0,0,0-2.34-1.6,41.43,41.43,0,0,0-10.44,8.53h0c-7-2.5-14.7-7.85-15.18-11-.69-4.57,4.88-12.39,0-13.34s-7.5,7.25-7.5,7.25c-4,.41-5.43-6.3-12-6.3a11.29,11.29,0,0,0-2.73.35,19.54,19.54,0,0,0-7.53,4.15s7.4-10.4,19-8.3c0,0-1.7-3.24-9.52-2.86,16.38-5.33,26.85-3.23,31.9,2.67C283.11,194.3,292.78,200.26,300.63,192.81Z"/><path class="cls-5" d="M333.94,417.65H276.8s45.33-13.34,45.33-103.24c0-1.15,0-2.29,0-3.43-.46-60.08-13.3-93.21-29.12-102.65a68.57,68.57,0,0,1,20.24-7.68,104.84,104.84,0,0,1,12.62-2c39.13-4,70.38,11.35,74.1,28.71S380.78,417.65,333.94,417.65Z"/><path class="cls-6" d="M322.13,314.41c0,89.9-45.33,103.24-45.33,103.24H183.1l3.9-2.78L211.67,399l49.51-3.43c2.66-11,9.91-11.41,20.95-12.57,6.43-.65,7.06-11.51,5.1-25.85a327.63,327.63,0,0,0-7.1-33.94,206.49,206.49,0,0,1-4.65-24.48,215,215,0,0,1-1.78-26.4,224.05,224.05,0,0,1,4.6-46.84c.23-1.13.47-2.22.71-3.27,0,0,0-.08,0-.11a23.44,23.44,0,0,1,3.51-5.21h0A41.43,41.43,0,0,1,293,208.33a23.73,23.73,0,0,1,2.34,1.6c14.73,11.22,26.33,44,26.78,101.05C322.13,312.12,322.13,313.26,322.13,314.41Z"/><path class="cls-5" d="M276.79,450.07q-6.41,1.35-13,2.3V417.64h13Z"/><path class="cls-18" d="M276.8,417.65v25a90.84,90.84,0,0,1-13,5.45V417.65Z"/><path class="cls-18" d="M294.7,378.79c-3,9.52-22.07,7.82-24.38,14.86-4.9,14.94-7.62,8.37-26.45,10.28-10.77,1.09-18.59,8-23.31,13.72H183.1l3.9-2.78L211.67,399l49.51-3.43c2.66-11,9.91-11.41,20.95-12.57,6.43-.65,7.06-11.51,5.1-25.85a327.63,327.63,0,0,0-7.1-33.94,206.49,206.49,0,0,1-4.65-24.48,215,215,0,0,1-1.78-26.4C281,310.49,297,371.74,294.7,378.79Z"/><path class="cls-18" d="M322.13,314.41c0-1.15,0-2.29,0-3.43-.46-60.08-13.3-93.21-29.12-102.65a68.57,68.57,0,0,1,20.24-7.68c-2.61,3.77-5.34,9.42-4.05,15.47,2.29,10.69,28.19,51.82,18.29,117.72-7.15,47.55-4.78,72.28,2.69,83.81H276.8S322.13,404.31,322.13,314.41Z"/><path class="cls-5" d="M357.19,85.27a27.66,27.66,0,0,0-33,43.14l-4.16-.5a.92.92,0,0,0-.22,1.83l6.34.75a.88.88,0,0,0,.67-.19.89.89,0,0,0,.35-.61l.73-6.13a.92.92,0,0,0-1.83-.22l-.46,3.91a25.83,25.83,0,0,1,30.77-40.34.92.92,0,0,0,.82-1.64Z"/><path class="cls-5" d="M333.35,136.08a27.67,27.67,0,0,0,33-43.15l4.15.5a.92.92,0,0,0,.22-1.82l-6.33-.76a1,1,0,0,0-.68.19.94.94,0,0,0-.34.62l-.73,6.12a.92.92,0,0,0,1.82.22l.47-3.9a25.83,25.83,0,0,1-30.77,40.34.92.92,0,1,0-.82,1.64Z"/><path class="cls-6" d="M280.18,43.83h.56V41.88h-.45c-2.66,0-4.73,1.42-4.73,4.8,0,1.17.12,2.19.22,3.31a28.18,28.18,0,0,1,.23,3.2,2.34,2.34,0,0,1-2.56,2.63V57.7A2.38,2.38,0,0,1,276,60.38a30.11,30.11,0,0,1-.23,3.23c-.1,1.09-.22,2.22-.22,3.35,0,3.56,2.22,4.81,4.7,4.81h.48v-2h-.52c-1.69,0-2.26-1.17-2.26-2.85a24.34,24.34,0,0,1,.23-2.9c.08-.94.19-1.88.19-2.82,0-3-1-4-2.6-4.48v-.07c1.62-.45,2.63-1.46,2.6-4.4,0-.91-.11-1.81-.19-2.79a23,23,0,0,1-.23-2.85C278,45,278.6,43.83,280.18,43.83Z"/><path class="cls-6" d="M309.23,53.19c0-1.09.12-2.14.22-3.2a29.81,29.81,0,0,0,.23-3.31c0-3.38-2.07-4.8-4.74-4.8h-.45v1.95h.56c1.58.19,2.23,1.13,2.23,2.82,0,1-.12,2-.19,2.85a25.16,25.16,0,0,0-.23,2.79c0,2.94,1,4,2.59,4.4v.07c-1.61.49-2.63,1.51-2.59,4.48a24.36,24.36,0,0,0,.23,2.82c.07.94.19,1.88.19,2.9,0,1.68-.57,2.66-2.26,2.85h-.53v2H305c2.49,0,4.7-1.25,4.7-4.81a30.71,30.71,0,0,0-.23-3.35c-.1-1.09-.22-2.19-.22-3.23a2.38,2.38,0,0,1,2.56-2.68V55.82A2.34,2.34,0,0,1,309.23,53.19Z"/><polygon class="cls-8" points="298.88 60.44 298.88 53.2 292.62 49.59 286.36 53.2 286.36 60.44 292.62 64.06 298.88 60.44"/><path class="cls-21" d="M24.65,467.23c-7.51,0-13.81-1.93-18.32-6.44-20.45-20.45,13.3-79.22,35.23-112.43a3,3,0,0,1,5,3.3C11.48,404.79-2,444,10.57,456.55c12,12,47.24.79,96.72-30.69,51.34-32.67,112.36-83.4,171.82-142.86S389.31,162.52,422,111.17c31.49-49.48,42.67-84.73,30.69-96.71-12.59-12.59-52,1-105.33,36.29a3,3,0,1,1-3.31-5c33.36-22.08,92.38-56,112.89-35.53C475.3,28.61,450.81,77,427,114.4c-32.89,51.7-83.92,113.08-143.68,172.84S162.21,398,110.51,430.92C82.29,448.87,47.78,467.23,24.65,467.23Z"/><circle class="cls-22" cx="447.39" cy="71.77" r="22.1"/><rect class="cls-23" x="1.23" width="470" height="470"/></g></g></g></svg>