<svg xmlns="http://www.w3.org/2000/svg" xmlns:xlink="http://www.w3.org/1999/xlink" viewBox="0 0 522.53 532.78"><defs><style>.cls-1{fill:url(#linear-gradient);}.cls-2,.cls-4,.cls-5{fill:none;stroke-miterlimit:10;}.cls-2{stroke:url(#linear-gradient-2);}.cls-3{fill:url(#linear-gradient-3);}.cls-4,.cls-5{stroke-width:3px;}.cls-4{stroke:url(#linear-gradient-4);}.cls-5{stroke:url(#linear-gradient-5);}.cls-6{opacity:0.5;}.cls-7{fill:#fff;}.cls-8{fill:url(#linear-gradient-6);}</style><linearGradient id="linear-gradient" x1="194.33" y1="15.94" x2="226.2" y2="15.94" gradientUnits="userSpaceOnUse"><stop offset="0" stop-color="#d23274"/><stop offset="1" stop-color="#f24a37"/></linearGradient><linearGradient id="linear-gradient-2" x1="0" y1="271.51" x2="522.53" y2="271.51" xlink:href="#linear-gradient"/><linearGradient id="linear-gradient-3" x1="26.27" y1="271.51" x2="496.27" y2="271.51" xlink:href="#linear-gradient"/><linearGradient id="linear-gradient-4" x1="-1429.47" y1="1543.59" x2="-793.96" y2="1543.59" gradientTransform="translate(1372.98 -1272.08)" xlink:href="#linear-gradient"/><linearGradient id="linear-gradient-5" x1="-5889.48" y1="5818.72" x2="-5253.97" y2="5818.72" gradientTransform="translate(6079.99 5843.23) rotate(90)" xlink:href="#linear-gradient"/><linearGradient id="linear-gradient-6" x1="473.11" y1="55.47" x2="504.98" y2="55.47" xlink:href="#linear-gradient"/></defs><title>Asset 5@web</title><g id="Layer_2" data-name="Layer 2"><g id="Layer_1-2" data-name="Layer 1"><circle class="cls-1" cx="210.27" cy="15.94" r="15.94"/><circle class="cls-2" cx="261.27" cy="271.51" r="260.77"/><circle class="cls-3" cx="261.27" cy="271.51" r="235"/><ellipse class="cls-4" cx="261.27" cy="271.51" rx="316.26" ry="65.46" transform="translate(-115.46 264.27) rotate(-45)"/><ellipse class="cls-5" cx="261.27" cy="271.51" rx="65.46" ry="316.26" transform="translate(-115.46 264.27) rotate(-45)"/><g class="cls-6"><polygon class="cls-7" points="165.9 321.67 208.49 266.11 242.05 307.55 296.45 233.24 361.27 322.13 165.9 321.67"/><circle class="cls-7" cx="178.4" cy="213.34" r="17.13"/></g><circle class="cls-8" cx="489.04" cy="55.47" r="15.94"/></g></g></svg>